<?xml version="1.0" encoding="utf-8" standalone="no"?>
<!DOCTYPE svg PUBLIC "-//W3C//DTD SVG 1.1//EN"
  "http://www.w3.org/Graphics/SVG/1.1/DTD/svg11.dtd">
<svg height="432pt" version="1.1" viewBox="0 0 432 432" width="432pt" xmlns="http://www.w3.org/2000/svg" xmlns:xlink="http://www.w3.org/1999/xlink">
 <metadata>
  <rdf:RDF xmlns:cc="http://creativecommons.org/ns#" xmlns:dc="http://purl.org/dc/elements/1.1/" xmlns:rdf="http://www.w3.org/1999/02/22-rdf-syntax-ns#">
   <cc:Work>
    <dc:type rdf:resource="http://purl.org/dc/dcmitype/StillImage"/>
    <dc:date>2022-03-15T13:29:16.012906</dc:date>
    <dc:format>image/svg+xml</dc:format>
    <dc:creator>
     <cc:Agent>
      <dc:title>Matplotlib v3.4.3, https://matplotlib.org/</dc:title>
     </cc:Agent>
    </dc:creator>
   </cc:Work>
  </rdf:RDF>
 </metadata>
 <defs>
  <style type="text/css">*{stroke-linecap:butt;stroke-linejoin:round;}</style>
 </defs>
 <g id="figure_1">
  <g id="patch_1">
   <path d="M 0 432 
L 432 432 
L 432 0 
L 0 0 
z
" style="fill:#ffffff;"/>
  </g>
  <g id="patch_2">
   <path d="M 55.08 384.48 
L 387.72 384.48 
L 387.72 51.84 
L 55.08 51.84 
z
" style="fill:#ffffff;"/>
  </g>
  <g id="pane3d_1">
   <g id="patch_3">
    <path d="M 73.391694 134.71977 
L 208.281313 124.531542 
L 208.438287 272.02688 
L 74.878635 295.987898 
" style="fill:#f2f2f2;opacity:0.5;stroke:#f2f2f2;stroke-linejoin:miter;"/>
   </g>
  </g>
  <g id="pane3d_2">
   <g id="patch_4">
    <path d="M 208.281313 124.531542 
L 375.21419 132.267153 
L 373.788407 290.223455 
L 208.438287 272.02688 
" style="fill:#e6e6e6;opacity:0.5;stroke:#e6e6e6;stroke-linejoin:miter;"/>
   </g>
  </g>
  <g id="pane3d_3">
   <g id="patch_5">
    <path d="M 74.878635 295.987898 
L 246.496333 317.915558 
L 373.788407 290.223455 
L 208.438287 272.02688 
" style="fill:#ececec;opacity:0.5;stroke:#ececec;stroke-linejoin:miter;"/>
   </g>
  </g>
  <g id="axis3d_1">
   <g id="line2d_1">
    <path d="M 74.878635 295.987898 
L 246.496333 317.915558 
" style="fill:none;stroke:#000000;stroke-linecap:square;stroke-width:0.8;"/>
   </g>
   <g id="text_1">
    <!-- X -->
    <g transform="translate(133.130785 337.62924)scale(0.1 -0.1)">
     <defs>
      <path d="M 403 4666 
L 1081 4666 
L 2241 2931 
L 3406 4666 
L 4084 4666 
L 2584 2425 
L 4184 0 
L 3506 0 
L 2194 1984 
L 872 0 
L 191 0 
L 1856 2491 
L 403 4666 
z
" id="DejaVuSans-58" transform="scale(0.015625)"/>
     </defs>
     <use xlink:href="#DejaVuSans-58"/>
    </g>
   </g>
   <g id="xtick_1">
    <g id="line2d_2">
     <path d="M 102.11914 299.105336 
L 98.627216 299.75011 
" style="fill:none;stroke:#000000;stroke-linecap:square;stroke-width:0.8;"/>
    </g>
    <g id="text_2">
     <!-- −2 -->
     <g transform="translate(83.962744 319.496353)scale(0.1 -0.1)">
      <defs>
       <path d="M 678 2272 
L 4684 2272 
L 4684 1741 
L 678 1741 
L 678 2272 
z
" id="DejaVuSans-2212" transform="scale(0.015625)"/>
       <path d="M 1228 531 
L 3431 531 
L 3431 0 
L 469 0 
L 469 531 
Q 828 903 1448 1529 
Q 2069 2156 2228 2338 
Q 2531 2678 2651 2914 
Q 2772 3150 2772 3378 
Q 2772 3750 2511 3984 
Q 2250 4219 1831 4219 
Q 1534 4219 1204 4116 
Q 875 4013 500 3803 
L 500 4441 
Q 881 4594 1212 4672 
Q 1544 4750 1819 4750 
Q 2544 4750 2975 4387 
Q 3406 4025 3406 3419 
Q 3406 3131 3298 2873 
Q 3191 2616 2906 2266 
Q 2828 2175 2409 1742 
Q 1991 1309 1228 531 
z
" id="DejaVuSans-32" transform="scale(0.015625)"/>
      </defs>
      <use xlink:href="#DejaVuSans-2212"/>
      <use x="83.789062" xlink:href="#DejaVuSans-32"/>
     </g>
    </g>
   </g>
   <g id="xtick_2">
    <g id="line2d_3">
     <path d="M 129.997072 302.662727 
L 126.525555 303.323899 
" style="fill:none;stroke:#000000;stroke-linecap:square;stroke-width:0.8;"/>
    </g>
    <g id="text_3">
     <!-- −1 -->
     <g transform="translate(111.886052 323.239542)scale(0.1 -0.1)">
      <defs>
       <path d="M 794 531 
L 1825 531 
L 1825 4091 
L 703 3866 
L 703 4441 
L 1819 4666 
L 2450 4666 
L 2450 531 
L 3481 531 
L 3481 0 
L 794 0 
L 794 531 
z
" id="DejaVuSans-31" transform="scale(0.015625)"/>
      </defs>
      <use xlink:href="#DejaVuSans-2212"/>
      <use x="83.789062" xlink:href="#DejaVuSans-31"/>
     </g>
    </g>
   </g>
   <g id="xtick_3">
    <g id="line2d_4">
     <path d="M 158.587743 306.311068 
L 155.138827 306.989272 
" style="fill:none;stroke:#000000;stroke-linecap:square;stroke-width:0.8;"/>
    </g>
    <g id="text_4">
     <!-- 0 -->
     <g transform="translate(144.717833 327.079065)scale(0.1 -0.1)">
      <defs>
       <path d="M 2034 4250 
Q 1547 4250 1301 3770 
Q 1056 3291 1056 2328 
Q 1056 1369 1301 889 
Q 1547 409 2034 409 
Q 2525 409 2770 889 
Q 3016 1369 3016 2328 
Q 3016 3291 2770 3770 
Q 2525 4250 2034 4250 
z
M 2034 4750 
Q 2819 4750 3233 4129 
Q 3647 3509 3647 2328 
Q 3647 1150 3233 529 
Q 2819 -91 2034 -91 
Q 1250 -91 836 529 
Q 422 1150 422 2328 
Q 422 3509 836 4129 
Q 1250 4750 2034 4750 
z
" id="DejaVuSans-30" transform="scale(0.015625)"/>
      </defs>
      <use xlink:href="#DejaVuSans-30"/>
     </g>
    </g>
   </g>
   <g id="xtick_4">
    <g id="line2d_5">
     <path d="M 187.918839 310.053892 
L 184.494871 310.749795 
" style="fill:none;stroke:#000000;stroke-linecap:square;stroke-width:0.8;"/>
    </g>
    <g id="text_5">
     <!-- 1 -->
     <g transform="translate(174.106504 331.018689)scale(0.1 -0.1)">
      <use xlink:href="#DejaVuSans-31"/>
     </g>
    </g>
   </g>
   <g id="xtick_5">
    <g id="line2d_6">
     <path d="M 218.0195 313.894917 
L 214.62299 314.60922 
" style="fill:none;stroke:#000000;stroke-linecap:square;stroke-width:0.8;"/>
    </g>
    <g id="text_6">
     <!-- 2 -->
     <g transform="translate(204.271495 335.062381)scale(0.1 -0.1)">
      <use xlink:href="#DejaVuSans-32"/>
     </g>
    </g>
   </g>
  </g>
  <g id="axis3d_2">
   <g id="line2d_7">
    <path d="M 373.788407 290.223455 
L 246.496333 317.915558 
" style="fill:none;stroke:#000000;stroke-linecap:square;stroke-width:0.8;"/>
   </g>
   <g id="text_7">
    <!-- Z -->
    <g transform="translate(336.053618 333.150877)scale(0.1 -0.1)">
     <defs>
      <path d="M 359 4666 
L 4025 4666 
L 4025 4184 
L 1075 531 
L 4097 531 
L 4097 0 
L 288 0 
L 288 481 
L 3238 4134 
L 359 4134 
L 359 4666 
z
" id="DejaVuSans-5a" transform="scale(0.015625)"/>
     </defs>
     <use xlink:href="#DejaVuSans-5a"/>
    </g>
   </g>
   <g id="xtick_6">
    <g id="line2d_8">
     <path d="M 267.368965 312.871943 
L 271.784236 313.421744 
" style="fill:none;stroke:#000000;stroke-linecap:square;stroke-width:0.8;"/>
    </g>
    <g id="text_8">
     <!-- 0 -->
     <g transform="translate(277.886559 333.467776)scale(0.1 -0.1)">
      <use xlink:href="#DejaVuSans-30"/>
     </g>
    </g>
   </g>
   <g id="xtick_7">
    <g id="line2d_9">
     <path d="M 289.93573 307.970931 
L 294.318939 308.502635 
" style="fill:none;stroke:#000000;stroke-linecap:square;stroke-width:0.8;"/>
    </g>
    <g id="text_9">
     <!-- 1 -->
     <g transform="translate(300.338078 328.325654)scale(0.1 -0.1)">
      <use xlink:href="#DejaVuSans-31"/>
     </g>
    </g>
   </g>
   <g id="xtick_8">
    <g id="line2d_10">
     <path d="M 311.766417 303.229779 
L 316.117288 303.744266 
" style="fill:none;stroke:#000000;stroke-linecap:square;stroke-width:0.8;"/>
    </g>
    <g id="text_10">
     <!-- 2 -->
     <g transform="translate(322.053672 323.352082)scale(0.1 -0.1)">
      <use xlink:href="#DejaVuSans-32"/>
     </g>
    </g>
   </g>
   <g id="xtick_9">
    <g id="line2d_11">
     <path d="M 332.896461 298.640791 
L 337.214793 299.138885 
" style="fill:none;stroke:#000000;stroke-linecap:square;stroke-width:0.8;"/>
    </g>
    <g id="text_11">
     <!-- 3 -->
     <g transform="translate(343.068939 318.538908)scale(0.1 -0.1)">
      <defs>
       <path d="M 2597 2516 
Q 3050 2419 3304 2112 
Q 3559 1806 3559 1356 
Q 3559 666 3084 287 
Q 2609 -91 1734 -91 
Q 1441 -91 1130 -33 
Q 819 25 488 141 
L 488 750 
Q 750 597 1062 519 
Q 1375 441 1716 441 
Q 2309 441 2620 675 
Q 2931 909 2931 1356 
Q 2931 1769 2642 2001 
Q 2353 2234 1838 2234 
L 1294 2234 
L 1294 2753 
L 1863 2753 
Q 2328 2753 2575 2939 
Q 2822 3125 2822 3475 
Q 2822 3834 2567 4026 
Q 2313 4219 1838 4219 
Q 1578 4219 1281 4162 
Q 984 4106 628 3988 
L 628 4550 
Q 988 4650 1302 4700 
Q 1616 4750 1894 4750 
Q 2613 4750 3031 4423 
Q 3450 4097 3450 3541 
Q 3450 3153 3228 2886 
Q 3006 2619 2597 2516 
z
" id="DejaVuSans-33" transform="scale(0.015625)"/>
      </defs>
      <use xlink:href="#DejaVuSans-33"/>
     </g>
    </g>
   </g>
   <g id="xtick_10">
    <g id="line2d_12">
     <path d="M 353.35906 294.196758 
L 357.64472 294.679229 
" style="fill:none;stroke:#000000;stroke-linecap:square;stroke-width:0.8;"/>
    </g>
    <g id="text_12">
     <!-- 4 -->
     <g transform="translate(363.41722 313.878495)scale(0.1 -0.1)">
      <defs>
       <path d="M 2419 4116 
L 825 1625 
L 2419 1625 
L 2419 4116 
z
M 2253 4666 
L 3047 4666 
L 3047 1625 
L 3713 1625 
L 3713 1100 
L 3047 1100 
L 3047 0 
L 2419 0 
L 2419 1100 
L 313 1100 
L 313 1709 
L 2253 4666 
z
" id="DejaVuSans-34" transform="scale(0.015625)"/>
      </defs>
      <use xlink:href="#DejaVuSans-34"/>
     </g>
    </g>
   </g>
  </g>
  <g id="axis3d_3">
   <g id="line2d_13">
    <path d="M 373.788407 290.223455 
L 375.21419 132.267153 
" style="fill:none;stroke:#000000;stroke-linecap:square;stroke-width:0.8;"/>
   </g>
   <g id="text_13">
    <!-- Y -->
    <g transform="translate(413.758276 213.80247)scale(0.1 -0.1)">
     <defs>
      <path d="M -13 4666 
L 666 4666 
L 1959 2747 
L 3244 4666 
L 3922 4666 
L 2272 2222 
L 2272 0 
L 1638 0 
L 1638 2222 
L -13 4666 
z
" id="DejaVuSans-59" transform="scale(0.015625)"/>
     </defs>
     <use xlink:href="#DejaVuSans-59"/>
    </g>
   </g>
   <g id="xtick_11">
    <g id="line2d_14">
     <path d="M 373.552809 157.977288 
L 377.843488 158.220729 
" style="fill:none;stroke:#000000;stroke-linecap:square;stroke-width:0.8;"/>
    </g>
    <g id="text_14">
     <!-- −2 -->
     <g transform="translate(387.169027 165.462205)scale(0.1 -0.1)">
      <use xlink:href="#DejaVuSans-2212"/>
      <use x="83.789062" xlink:href="#DejaVuSans-32"/>
     </g>
    </g>
   </g>
   <g id="xtick_12">
    <g id="line2d_15">
     <path d="M 373.31312 184.78842 
L 377.596408 185.077773 
" style="fill:none;stroke:#000000;stroke-linecap:square;stroke-width:0.8;"/>
    </g>
    <g id="text_15">
     <!-- −1 -->
     <g transform="translate(386.89549 192.251926)scale(0.1 -0.1)">
      <use xlink:href="#DejaVuSans-2212"/>
      <use x="83.789062" xlink:href="#DejaVuSans-31"/>
     </g>
    </g>
   </g>
   <g id="xtick_13">
    <g id="line2d_16">
     <path d="M 373.074208 211.512649 
L 377.35013 211.847616 
" style="fill:none;stroke:#000000;stroke-linecap:square;stroke-width:0.8;"/>
    </g>
    <g id="text_16">
     <!-- 0 -->
     <g transform="translate(390.812683 218.954884)scale(0.1 -0.1)">
      <use xlink:href="#DejaVuSans-30"/>
     </g>
    </g>
   </g>
   <g id="xtick_14">
    <g id="line2d_17">
     <path d="M 372.836069 238.150398 
L 377.104651 238.530681 
" style="fill:none;stroke:#000000;stroke-linecap:square;stroke-width:0.8;"/>
    </g>
    <g id="text_17">
     <!-- 1 -->
     <g transform="translate(390.540914 245.5715)scale(0.1 -0.1)">
      <use xlink:href="#DejaVuSans-31"/>
     </g>
    </g>
   </g>
   <g id="xtick_15">
    <g id="line2d_18">
     <path d="M 372.5987 264.702085 
L 376.859966 265.12739 
" style="fill:none;stroke:#000000;stroke-linecap:square;stroke-width:0.8;"/>
    </g>
    <g id="text_18">
     <!-- 2 -->
     <g transform="translate(390.270022 272.102191)scale(0.1 -0.1)">
      <use xlink:href="#DejaVuSans-32"/>
     </g>
    </g>
   </g>
  </g>
  <g id="axes_1">
   <g id="Path3DCollection_1">
    <defs>
     <path d="M 0 1.118034 
C 0.296506 1.118034 0.580908 1.000231 0.790569 0.790569 
C 1.000231 0.580908 1.118034 0.296506 1.118034 -0 
C 1.118034 -0.296506 1.000231 -0.580908 0.790569 -0.790569 
C 0.580908 -1.000231 0.296506 -1.118034 0 -1.118034 
C -0.296506 -1.118034 -0.580908 -1.000231 -0.790569 -0.790569 
C -1.000231 -0.580908 -1.118034 -0.296506 -1.118034 0 
C -1.118034 0.296506 -1.000231 0.580908 -0.790569 0.790569 
C -0.580908 1.000231 -0.296506 1.118034 0 1.118034 
z
" id="C0_0_3063d80f32"/>
    </defs>
    <g clip-path="url(#p1f73ba6864)">
     <use style="fill:#3d3d3f;stroke:#3d3d3f;" x="187.988345" xlink:href="#C0_0_3063d80f32" y="216.069874"/>
    </g>
    <g clip-path="url(#p1f73ba6864)">
     <use style="fill:#746b6c;stroke:#746b6c;" x="188.794305" xlink:href="#C0_0_3063d80f32" y="217.466408"/>
    </g>
    <g clip-path="url(#p1f73ba6864)">
     <use style="fill:#888783;stroke:#888783;" x="188.534877" xlink:href="#C0_0_3063d80f32" y="218.626589"/>
    </g>
    <g clip-path="url(#p1f73ba6864)">
     <use style="fill:#7c7877;stroke:#7c7877;" x="187.935823" xlink:href="#C0_0_3063d80f32" y="218.981515"/>
    </g>
    <g clip-path="url(#p1f73ba6864)">
     <use style="fill:#918d8a;stroke:#918d8a;" x="185.321223" xlink:href="#C0_0_3063d80f32" y="212.881204"/>
    </g>
    <g clip-path="url(#p1f73ba6864)">
     <use style="fill:#817e79;stroke:#817e79;" x="187.133472" xlink:href="#C0_0_3063d80f32" y="219.342707"/>
    </g>
    <g clip-path="url(#p1f73ba6864)">
     <use style="fill:#dcdfe8;stroke:#dcdfe8;" x="184.879737" xlink:href="#C0_0_3063d80f32" y="222.299508"/>
    </g>
    <g clip-path="url(#p1f73ba6864)">
     <use style="fill:#a19d9c;stroke:#a19d9c;" x="186.882161" xlink:href="#C0_0_3063d80f32" y="219.50714"/>
    </g>
    <g clip-path="url(#p1f73ba6864)">
     <use style="fill:#92938d;stroke:#92938d;" x="183.662242" xlink:href="#C0_0_3063d80f32" y="213.354562"/>
    </g>
    <g clip-path="url(#p1f73ba6864)">
     <use style="fill:#7d7a75;stroke:#7d7a75;" x="186.53131" xlink:href="#C0_0_3063d80f32" y="219.657612"/>
    </g>
    <g clip-path="url(#p1f73ba6864)">
     <use style="fill:#9c9d9f;stroke:#9c9d9f;" x="182.516667" xlink:href="#C0_0_3063d80f32" y="213.598638"/>
    </g>
    <g clip-path="url(#p1f73ba6864)">
     <use style="fill:#666263;stroke:#666263;" x="195.213611" xlink:href="#C0_0_3063d80f32" y="214.497431"/>
    </g>
    <g clip-path="url(#p1f73ba6864)">
     <use style="fill:#9e9a97;stroke:#9e9a97;" x="185.554346" xlink:href="#C0_0_3063d80f32" y="220.09312"/>
    </g>
    <g clip-path="url(#p1f73ba6864)">
     <use style="fill:#49423a;stroke:#49423a;" x="181.883405" xlink:href="#C0_0_3063d80f32" y="222.548529"/>
    </g>
    <g clip-path="url(#p1f73ba6864)">
     <use style="fill:#a2a19d;stroke:#a2a19d;" x="188.750798" xlink:href="#C0_0_3063d80f32" y="217.225864"/>
    </g>
    <g clip-path="url(#p1f73ba6864)">
     <use style="fill:#62412e;stroke:#62412e;" x="182.275339" xlink:href="#C0_0_3063d80f32" y="222.332421"/>
    </g>
    <g clip-path="url(#p1f73ba6864)">
     <use style="fill:#7b695b;stroke:#7b695b;" x="181.966119" xlink:href="#C0_0_3063d80f32" y="222.339413"/>
    </g>
    <g clip-path="url(#p1f73ba6864)">
     <use style="fill:#74716c;stroke:#74716c;" x="177.391112" xlink:href="#C0_0_3063d80f32" y="214.142144"/>
    </g>
    <g clip-path="url(#p1f73ba6864)">
     <use style="fill:#7a7675;stroke:#7a7675;" x="176.332411" xlink:href="#C0_0_3063d80f32" y="214.187815"/>
    </g>
    <g clip-path="url(#p1f73ba6864)">
     <use style="fill:#2e323d;stroke:#2e323d;" x="175.336887" xlink:href="#C0_0_3063d80f32" y="214.246128"/>
    </g>
    <g clip-path="url(#p1f73ba6864)">
     <use style="fill:#2e323d;stroke:#2e323d;" x="175.336887" xlink:href="#C0_0_3063d80f32" y="214.246128"/>
    </g>
    <g clip-path="url(#p1f73ba6864)">
     <use style="fill:#6c6b69;stroke:#6c6b69;" x="171.767067" xlink:href="#C0_0_3063d80f32" y="221.901942"/>
    </g>
    <g clip-path="url(#p1f73ba6864)">
     <use style="fill:#938e88;stroke:#938e88;" x="170.796763" xlink:href="#C0_0_3063d80f32" y="221.828313"/>
    </g>
    <g clip-path="url(#p1f73ba6864)">
     <use style="fill:#565857;stroke:#565857;" x="166.310248" xlink:href="#C0_0_3063d80f32" y="214.71937"/>
    </g>
    <g clip-path="url(#p1f73ba6864)">
     <use style="fill:#9d9996;stroke:#9d9996;" x="166.988568" xlink:href="#C0_0_3063d80f32" y="221.144007"/>
    </g>
    <g clip-path="url(#p1f73ba6864)">
     <use style="fill:#3c382c;stroke:#3c382c;" x="162.479337" xlink:href="#C0_0_3063d80f32" y="214.827501"/>
    </g>
    <g clip-path="url(#p1f73ba6864)">
     <use style="fill:#8a8987;stroke:#8a8987;" x="166.368563" xlink:href="#C0_0_3063d80f32" y="221.02496"/>
    </g>
    <g clip-path="url(#p1f73ba6864)">
     <use style="fill:#8a8987;stroke:#8a8987;" x="166.368563" xlink:href="#C0_0_3063d80f32" y="221.02496"/>
    </g>
    <g clip-path="url(#p1f73ba6864)">
     <use style="fill:#97928c;stroke:#97928c;" x="162.896094" xlink:href="#C0_0_3063d80f32" y="220.717876"/>
    </g>
    <g clip-path="url(#p1f73ba6864)">
     <use style="fill:#6c6962;stroke:#6c6962;" x="159.912741" xlink:href="#C0_0_3063d80f32" y="215.066804"/>
    </g>
    <g clip-path="url(#p1f73ba6864)">
     <use style="fill:#5b544e;stroke:#5b544e;" x="159.448448" xlink:href="#C0_0_3063d80f32" y="220.89038"/>
    </g>
    <g clip-path="url(#p1f73ba6864)">
     <use style="fill:#7c7676;stroke:#7c7676;" x="162.293863" xlink:href="#C0_0_3063d80f32" y="220.620032"/>
    </g>
    <g clip-path="url(#p1f73ba6864)">
     <use style="fill:#9c938a;stroke:#9c938a;" x="161.381661" xlink:href="#C0_0_3063d80f32" y="220.697866"/>
    </g>
    <g clip-path="url(#p1f73ba6864)">
     <use style="fill:#9b9693;stroke:#9b9693;" x="162.551762" xlink:href="#C0_0_3063d80f32" y="220.553423"/>
    </g>
    <g clip-path="url(#p1f73ba6864)">
     <use style="fill:#454641;stroke:#454641;" x="159.258989" xlink:href="#C0_0_3063d80f32" y="215.080772"/>
    </g>
    <g clip-path="url(#p1f73ba6864)">
     <use style="fill:#454641;stroke:#454641;" x="159.258989" xlink:href="#C0_0_3063d80f32" y="215.080772"/>
    </g>
    <g clip-path="url(#p1f73ba6864)">
     <use style="fill:#6c6260;stroke:#6c6260;" x="162.097213" xlink:href="#C0_0_3063d80f32" y="220.515229"/>
    </g>
    <g clip-path="url(#p1f73ba6864)">
     <use style="fill:#6c6259;stroke:#6c6259;" x="161.628337" xlink:href="#C0_0_3063d80f32" y="220.485231"/>
    </g>
    <g clip-path="url(#p1f73ba6864)">
     <use style="fill:#6a625f;stroke:#6a625f;" x="161.8021" xlink:href="#C0_0_3063d80f32" y="220.39815"/>
    </g>
    <g clip-path="url(#p1f73ba6864)">
     <use style="fill:#86837c;stroke:#86837c;" x="160.850683" xlink:href="#C0_0_3063d80f32" y="220.499397"/>
    </g>
    <g clip-path="url(#p1f73ba6864)">
     <use style="fill:#8f8d7e;stroke:#8f8d7e;" x="159.884616" xlink:href="#C0_0_3063d80f32" y="220.542731"/>
    </g>
    <g clip-path="url(#p1f73ba6864)">
     <use style="fill:#7a7468;stroke:#7a7468;" x="158.008623" xlink:href="#C0_0_3063d80f32" y="215.086447"/>
    </g>
    <g clip-path="url(#p1f73ba6864)">
     <use style="fill:#665c52;stroke:#665c52;" x="160.878765" xlink:href="#C0_0_3063d80f32" y="220.425422"/>
    </g>
    <g clip-path="url(#p1f73ba6864)">
     <use style="fill:#665c52;stroke:#665c52;" x="160.878765" xlink:href="#C0_0_3063d80f32" y="220.425422"/>
    </g>
    <g clip-path="url(#p1f73ba6864)">
     <use style="fill:#514947;stroke:#514947;" x="155.507803" xlink:href="#C0_0_3063d80f32" y="220.564072"/>
    </g>
    <g clip-path="url(#p1f73ba6864)">
     <use style="fill:#928b81;stroke:#928b81;" x="157.539176" xlink:href="#C0_0_3063d80f32" y="220.368024"/>
    </g>
    <g clip-path="url(#p1f73ba6864)">
     <use style="fill:#726a5d;stroke:#726a5d;" x="154.989686" xlink:href="#C0_0_3063d80f32" y="220.480587"/>
    </g>
    <g clip-path="url(#p1f73ba6864)">
     <use style="fill:#726a5d;stroke:#726a5d;" x="154.989686" xlink:href="#C0_0_3063d80f32" y="220.480587"/>
    </g>
    <g clip-path="url(#p1f73ba6864)">
     <use style="fill:#585350;stroke:#585350;" x="155.198242" xlink:href="#C0_0_3063d80f32" y="220.466615"/>
    </g>
    <g clip-path="url(#p1f73ba6864)">
     <use style="fill:#64707c;stroke:#64707c;" x="156.291567" xlink:href="#C0_0_3063d80f32" y="214.514666"/>
    </g>
    <g clip-path="url(#p1f73ba6864)">
     <use style="fill:#737069;stroke:#737069;" x="150.561865" xlink:href="#C0_0_3063d80f32" y="220.647742"/>
    </g>
    <g clip-path="url(#p1f73ba6864)">
     <use style="fill:#6e6761;stroke:#6e6761;" x="152.574336" xlink:href="#C0_0_3063d80f32" y="220.533985"/>
    </g>
    <g clip-path="url(#p1f73ba6864)">
     <use style="fill:#8a877e;stroke:#8a877e;" x="155.112943" xlink:href="#C0_0_3063d80f32" y="220.349736"/>
    </g>
    <g clip-path="url(#p1f73ba6864)">
     <use style="fill:#7b7c76;stroke:#7b7c76;" x="156.364401" xlink:href="#C0_0_3063d80f32" y="215.365377"/>
    </g>
    <g clip-path="url(#p1f73ba6864)">
     <use style="fill:#59514e;stroke:#59514e;" x="153.644987" xlink:href="#C0_0_3063d80f32" y="220.415478"/>
    </g>
    <g clip-path="url(#p1f73ba6864)">
     <use style="fill:#797166;stroke:#797166;" x="153.81065" xlink:href="#C0_0_3063d80f32" y="220.36803"/>
    </g>
    <g clip-path="url(#p1f73ba6864)">
     <use style="fill:#797166;stroke:#797166;" x="153.81065" xlink:href="#C0_0_3063d80f32" y="220.36803"/>
    </g>
    <g clip-path="url(#p1f73ba6864)">
     <use style="fill:#4f4b4a;stroke:#4f4b4a;" x="154.052282" xlink:href="#C0_0_3063d80f32" y="220.320343"/>
    </g>
    <g clip-path="url(#p1f73ba6864)">
     <use style="fill:#4f4b4a;stroke:#4f4b4a;" x="154.052282" xlink:href="#C0_0_3063d80f32" y="220.320343"/>
    </g>
    <g clip-path="url(#p1f73ba6864)">
     <use style="fill:#8d8a83;stroke:#8d8a83;" x="156.615634" xlink:href="#C0_0_3063d80f32" y="220.094118"/>
    </g>
    <g clip-path="url(#p1f73ba6864)">
     <use style="fill:#939185;stroke:#939185;" x="155.489548" xlink:href="#C0_0_3063d80f32" y="220.177225"/>
    </g>
    <g clip-path="url(#p1f73ba6864)">
     <use style="fill:#99968d;stroke:#99968d;" x="156.348401" xlink:href="#C0_0_3063d80f32" y="219.957598"/>
    </g>
    <g clip-path="url(#p1f73ba6864)">
     <use style="fill:#756e66;stroke:#756e66;" x="152.807998" xlink:href="#C0_0_3063d80f32" y="220.252435"/>
    </g>
    <g clip-path="url(#p1f73ba6864)">
     <use style="fill:#8e8a87;stroke:#8e8a87;" x="154.485822" xlink:href="#C0_0_3063d80f32" y="220.100893"/>
    </g>
    <g clip-path="url(#p1f73ba6864)">
     <use style="fill:#888782;stroke:#888782;" x="154.86882" xlink:href="#C0_0_3063d80f32" y="220.02177"/>
    </g>
    <g clip-path="url(#p1f73ba6864)">
     <use style="fill:#888782;stroke:#888782;" x="154.867971" xlink:href="#C0_0_3063d80f32" y="220.022393"/>
    </g>
    <g clip-path="url(#p1f73ba6864)">
     <use style="fill:#636162;stroke:#636162;" x="151.653199" xlink:href="#C0_0_3063d80f32" y="220.036263"/>
    </g>
    <g clip-path="url(#p1f73ba6864)">
     <use style="fill:#8e8d89;stroke:#8e8d89;" x="155.148302" xlink:href="#C0_0_3063d80f32" y="219.660237"/>
    </g>
    <g clip-path="url(#p1f73ba6864)">
     <use style="fill:#484347;stroke:#484347;" x="154.640528" xlink:href="#C0_0_3063d80f32" y="219.747747"/>
    </g>
    <g clip-path="url(#p1f73ba6864)">
     <use style="fill:#7e7d78;stroke:#7e7d78;" x="152.25913" xlink:href="#C0_0_3063d80f32" y="219.891397"/>
    </g>
    <g clip-path="url(#p1f73ba6864)">
     <use style="fill:#75716e;stroke:#75716e;" x="151.389887" xlink:href="#C0_0_3063d80f32" y="219.851955"/>
    </g>
    <g clip-path="url(#p1f73ba6864)">
     <use style="fill:#777671;stroke:#777671;" x="153.755138" xlink:href="#C0_0_3063d80f32" y="219.579944"/>
    </g>
    <g clip-path="url(#p1f73ba6864)">
     <use style="fill:#3b3632;stroke:#3b3632;" x="154.084163" xlink:href="#C0_0_3063d80f32" y="219.517038"/>
    </g>
    <g clip-path="url(#p1f73ba6864)">
     <use style="fill:#787878;stroke:#787878;" x="152.685547" xlink:href="#C0_0_3063d80f32" y="219.64619"/>
    </g>
    <g clip-path="url(#p1f73ba6864)">
     <use style="fill:#514c49;stroke:#514c49;" x="149.359976" xlink:href="#C0_0_3063d80f32" y="219.894581"/>
    </g>
    <g clip-path="url(#p1f73ba6864)">
     <use style="fill:#65605c;stroke:#65605c;" x="150.093876" xlink:href="#C0_0_3063d80f32" y="219.794213"/>
    </g>
    <g clip-path="url(#p1f73ba6864)">
     <use style="fill:#514e49;stroke:#514e49;" x="147.05259" xlink:href="#C0_0_3063d80f32" y="219.842043"/>
    </g>
    <g clip-path="url(#p1f73ba6864)">
     <use style="fill:#646464;stroke:#646464;" x="152.470454" xlink:href="#C0_0_3063d80f32" y="215.69375"/>
    </g>
    <g clip-path="url(#p1f73ba6864)">
     <use style="fill:#443e3e;stroke:#443e3e;" x="149.650159" xlink:href="#C0_0_3063d80f32" y="219.582323"/>
    </g>
    <g clip-path="url(#p1f73ba6864)">
     <use style="fill:#42433e;stroke:#42433e;" x="151.427058" xlink:href="#C0_0_3063d80f32" y="219.365235"/>
    </g>
    <g clip-path="url(#p1f73ba6864)">
     <use style="fill:#767674;stroke:#767674;" x="152.273781" xlink:href="#C0_0_3063d80f32" y="215.851365"/>
    </g>
    <g clip-path="url(#p1f73ba6864)">
     <use style="fill:#807c73;stroke:#807c73;" x="146.400905" xlink:href="#C0_0_3063d80f32" y="219.729578"/>
    </g>
    <g clip-path="url(#p1f73ba6864)">
     <use style="fill:#83827e;stroke:#83827e;" x="157.228509" xlink:href="#C0_0_3063d80f32" y="219.691754"/>
    </g>
    <g clip-path="url(#p1f73ba6864)">
     <use style="fill:#83827d;stroke:#83827d;" x="149.430281" xlink:href="#C0_0_3063d80f32" y="219.507435"/>
    </g>
    <g clip-path="url(#p1f73ba6864)">
     <use style="fill:#5b5853;stroke:#5b5853;" x="146.376979" xlink:href="#C0_0_3063d80f32" y="219.632406"/>
    </g>
    <g clip-path="url(#p1f73ba6864)">
     <use style="fill:#595554;stroke:#595554;" x="146.633229" xlink:href="#C0_0_3063d80f32" y="219.506212"/>
    </g>
    <g clip-path="url(#p1f73ba6864)">
     <use style="fill:#61605c;stroke:#61605c;" x="150.842396" xlink:href="#C0_0_3063d80f32" y="215.750742"/>
    </g>
    <g clip-path="url(#p1f73ba6864)">
     <use style="fill:#61605c;stroke:#61605c;" x="150.842396" xlink:href="#C0_0_3063d80f32" y="215.750742"/>
    </g>
    <g clip-path="url(#p1f73ba6864)">
     <use style="fill:#625d5a;stroke:#625d5a;" x="150.638335" xlink:href="#C0_0_3063d80f32" y="215.935686"/>
    </g>
    <g clip-path="url(#p1f73ba6864)">
     <use style="fill:#5f5657;stroke:#5f5657;" x="148.852979" xlink:href="#C0_0_3063d80f32" y="216.02847"/>
    </g>
    <g clip-path="url(#p1f73ba6864)">
     <use style="fill:#706d66;stroke:#706d66;" x="148.330022" xlink:href="#C0_0_3063d80f32" y="216.238258"/>
    </g>
    <g clip-path="url(#p1f73ba6864)">
     <use style="fill:#6c6461;stroke:#6c6461;" x="145.652563" xlink:href="#C0_0_3063d80f32" y="218.355736"/>
    </g>
    <g clip-path="url(#p1f73ba6864)">
     <use style="fill:#4e4e4e;stroke:#4e4e4e;" x="142.652449" xlink:href="#C0_0_3063d80f32" y="218.625554"/>
    </g>
    <g clip-path="url(#p1f73ba6864)">
     <use style="fill:#8c857d;stroke:#8c857d;" x="144.43796" xlink:href="#C0_0_3063d80f32" y="218.105756"/>
    </g>
    <g clip-path="url(#p1f73ba6864)">
     <use style="fill:#736d6d;stroke:#736d6d;" x="144.977413" xlink:href="#C0_0_3063d80f32" y="217.755718"/>
    </g>
    <g clip-path="url(#p1f73ba6864)">
     <use style="fill:#444041;stroke:#444041;" x="141.841822" xlink:href="#C0_0_3063d80f32" y="218.391264"/>
    </g>
    <g clip-path="url(#p1f73ba6864)">
     <use style="fill:#7c756d;stroke:#7c756d;" x="138.121874" xlink:href="#C0_0_3063d80f32" y="218.572523"/>
    </g>
    <g clip-path="url(#p1f73ba6864)">
     <use style="fill:#7a786c;stroke:#7a786c;" x="145.575608" xlink:href="#C0_0_3063d80f32" y="216.947404"/>
    </g>
    <g clip-path="url(#p1f73ba6864)">
     <use style="fill:#83827d;stroke:#83827d;" x="142.204509" xlink:href="#C0_0_3063d80f32" y="218.200506"/>
    </g>
    <g clip-path="url(#p1f73ba6864)">
     <use style="fill:#808078;stroke:#808078;" x="143.229141" xlink:href="#C0_0_3063d80f32" y="217.813371"/>
    </g>
    <g clip-path="url(#p1f73ba6864)">
     <use style="fill:#676863;stroke:#676863;" x="143.854301" xlink:href="#C0_0_3063d80f32" y="217.59917"/>
    </g>
    <g clip-path="url(#p1f73ba6864)">
     <use style="fill:#68635f;stroke:#68635f;" x="141.732836" xlink:href="#C0_0_3063d80f32" y="218.01104"/>
    </g>
    <g clip-path="url(#p1f73ba6864)">
     <use style="fill:#797874;stroke:#797874;" x="143.106551" xlink:href="#C0_0_3063d80f32" y="217.605433"/>
    </g>
    <g clip-path="url(#p1f73ba6864)">
     <use style="fill:#767570;stroke:#767570;" x="140.378821" xlink:href="#C0_0_3063d80f32" y="218.07397"/>
    </g>
    <g clip-path="url(#p1f73ba6864)">
     <use style="fill:#767570;stroke:#767570;" x="140.113696" xlink:href="#C0_0_3063d80f32" y="218.046955"/>
    </g>
    <g clip-path="url(#p1f73ba6864)">
     <use style="fill:#726c6c;stroke:#726c6c;" x="142.637953" xlink:href="#C0_0_3063d80f32" y="217.465369"/>
    </g>
    <g clip-path="url(#p1f73ba6864)">
     <use style="fill:#878880;stroke:#878880;" x="139.160507" xlink:href="#C0_0_3063d80f32" y="218.135812"/>
    </g>
    <g clip-path="url(#p1f73ba6864)">
     <use style="fill:#4a4742;stroke:#4a4742;" x="138.31765" xlink:href="#C0_0_3063d80f32" y="218.198575"/>
    </g>
    <g clip-path="url(#p1f73ba6864)">
     <use style="fill:#4a4742;stroke:#4a4742;" x="138.31765" xlink:href="#C0_0_3063d80f32" y="218.198575"/>
    </g>
    <g clip-path="url(#p1f73ba6864)">
     <use style="fill:#7c7b79;stroke:#7c7b79;" x="141.304294" xlink:href="#C0_0_3063d80f32" y="217.550912"/>
    </g>
    <g clip-path="url(#p1f73ba6864)">
     <use style="fill:#565457;stroke:#565457;" x="135.626691" xlink:href="#C0_0_3063d80f32" y="218.076476"/>
    </g>
    <g clip-path="url(#p1f73ba6864)">
     <use style="fill:#7d7b6f;stroke:#7d7b6f;" x="138.538179" xlink:href="#C0_0_3063d80f32" y="217.640191"/>
    </g>
    <g clip-path="url(#p1f73ba6864)">
     <use style="fill:#7f7c75;stroke:#7f7c75;" x="138.875021" xlink:href="#C0_0_3063d80f32" y="217.4557"/>
    </g>
    <g clip-path="url(#p1f73ba6864)">
     <use style="fill:#75746f;stroke:#75746f;" x="137.427214" xlink:href="#C0_0_3063d80f32" y="217.524943"/>
    </g>
    <g clip-path="url(#p1f73ba6864)">
     <use style="fill:#777671;stroke:#777671;" x="137.414161" xlink:href="#C0_0_3063d80f32" y="217.528457"/>
    </g>
    <g clip-path="url(#p1f73ba6864)">
     <use style="fill:#433e44;stroke:#433e44;" x="136.638079" xlink:href="#C0_0_3063d80f32" y="217.498863"/>
    </g>
    <g clip-path="url(#p1f73ba6864)">
     <use style="fill:#797a75;stroke:#797a75;" x="130.180364" xlink:href="#C0_0_3063d80f32" y="217.908563"/>
    </g>
    <g clip-path="url(#p1f73ba6864)">
     <use style="fill:#797a74;stroke:#797a74;" x="128.673478" xlink:href="#C0_0_3063d80f32" y="217.171242"/>
    </g>
    <g clip-path="url(#p1f73ba6864)">
     <use style="fill:#737270;stroke:#737270;" x="127.273255" xlink:href="#C0_0_3063d80f32" y="217.050793"/>
    </g>
    <g clip-path="url(#p1f73ba6864)">
     <use style="fill:#807f7d;stroke:#807f7d;" x="126.929286" xlink:href="#C0_0_3063d80f32" y="217.009654"/>
    </g>
    <g clip-path="url(#p1f73ba6864)">
     <use style="fill:#585550;stroke:#585550;" x="125.466586" xlink:href="#C0_0_3063d80f32" y="217.112685"/>
    </g>
    <g clip-path="url(#p1f73ba6864)">
     <use style="fill:#85807c;stroke:#85807c;" x="122.459685" xlink:href="#C0_0_3063d80f32" y="217.044176"/>
    </g>
    <g clip-path="url(#p1f73ba6864)">
     <use style="fill:#8a867b;stroke:#8a867b;" x="123.132393" xlink:href="#C0_0_3063d80f32" y="216.974375"/>
    </g>
    <g clip-path="url(#p1f73ba6864)">
     <use style="fill:#464543;stroke:#464543;" x="123.896333" xlink:href="#C0_0_3063d80f32" y="216.85051"/>
    </g>
    <g clip-path="url(#p1f73ba6864)">
     <use style="fill:#504e4f;stroke:#504e4f;" x="119.778908" xlink:href="#C0_0_3063d80f32" y="216.749129"/>
    </g>
    <g clip-path="url(#p1f73ba6864)">
     <use style="fill:#6d6c67;stroke:#6d6c67;" x="118.893493" xlink:href="#C0_0_3063d80f32" y="216.40393"/>
    </g>
   </g>
   <g id="text_19">
    <!-- [Click, hold and drag with the mouse to rotate the view] -->
    <g transform="translate(52.9725 45.84)scale(0.12 -0.12)">
     <defs>
      <path d="M 550 4863 
L 1875 4863 
L 1875 4416 
L 1125 4416 
L 1125 -397 
L 1875 -397 
L 1875 -844 
L 550 -844 
L 550 4863 
z
" id="DejaVuSans-5b" transform="scale(0.015625)"/>
      <path d="M 4122 4306 
L 4122 3641 
Q 3803 3938 3442 4084 
Q 3081 4231 2675 4231 
Q 1875 4231 1450 3742 
Q 1025 3253 1025 2328 
Q 1025 1406 1450 917 
Q 1875 428 2675 428 
Q 3081 428 3442 575 
Q 3803 722 4122 1019 
L 4122 359 
Q 3791 134 3420 21 
Q 3050 -91 2638 -91 
Q 1578 -91 968 557 
Q 359 1206 359 2328 
Q 359 3453 968 4101 
Q 1578 4750 2638 4750 
Q 3056 4750 3426 4639 
Q 3797 4528 4122 4306 
z
" id="DejaVuSans-43" transform="scale(0.015625)"/>
      <path d="M 603 4863 
L 1178 4863 
L 1178 0 
L 603 0 
L 603 4863 
z
" id="DejaVuSans-6c" transform="scale(0.015625)"/>
      <path d="M 603 3500 
L 1178 3500 
L 1178 0 
L 603 0 
L 603 3500 
z
M 603 4863 
L 1178 4863 
L 1178 4134 
L 603 4134 
L 603 4863 
z
" id="DejaVuSans-69" transform="scale(0.015625)"/>
      <path d="M 3122 3366 
L 3122 2828 
Q 2878 2963 2633 3030 
Q 2388 3097 2138 3097 
Q 1578 3097 1268 2742 
Q 959 2388 959 1747 
Q 959 1106 1268 751 
Q 1578 397 2138 397 
Q 2388 397 2633 464 
Q 2878 531 3122 666 
L 3122 134 
Q 2881 22 2623 -34 
Q 2366 -91 2075 -91 
Q 1284 -91 818 406 
Q 353 903 353 1747 
Q 353 2603 823 3093 
Q 1294 3584 2113 3584 
Q 2378 3584 2631 3529 
Q 2884 3475 3122 3366 
z
" id="DejaVuSans-63" transform="scale(0.015625)"/>
      <path d="M 581 4863 
L 1159 4863 
L 1159 1991 
L 2875 3500 
L 3609 3500 
L 1753 1863 
L 3688 0 
L 2938 0 
L 1159 1709 
L 1159 0 
L 581 0 
L 581 4863 
z
" id="DejaVuSans-6b" transform="scale(0.015625)"/>
      <path d="M 750 794 
L 1409 794 
L 1409 256 
L 897 -744 
L 494 -744 
L 750 256 
L 750 794 
z
" id="DejaVuSans-2c" transform="scale(0.015625)"/>
      <path id="DejaVuSans-20" transform="scale(0.015625)"/>
      <path d="M 3513 2113 
L 3513 0 
L 2938 0 
L 2938 2094 
Q 2938 2591 2744 2837 
Q 2550 3084 2163 3084 
Q 1697 3084 1428 2787 
Q 1159 2491 1159 1978 
L 1159 0 
L 581 0 
L 581 4863 
L 1159 4863 
L 1159 2956 
Q 1366 3272 1645 3428 
Q 1925 3584 2291 3584 
Q 2894 3584 3203 3211 
Q 3513 2838 3513 2113 
z
" id="DejaVuSans-68" transform="scale(0.015625)"/>
      <path d="M 1959 3097 
Q 1497 3097 1228 2736 
Q 959 2375 959 1747 
Q 959 1119 1226 758 
Q 1494 397 1959 397 
Q 2419 397 2687 759 
Q 2956 1122 2956 1747 
Q 2956 2369 2687 2733 
Q 2419 3097 1959 3097 
z
M 1959 3584 
Q 2709 3584 3137 3096 
Q 3566 2609 3566 1747 
Q 3566 888 3137 398 
Q 2709 -91 1959 -91 
Q 1206 -91 779 398 
Q 353 888 353 1747 
Q 353 2609 779 3096 
Q 1206 3584 1959 3584 
z
" id="DejaVuSans-6f" transform="scale(0.015625)"/>
      <path d="M 2906 2969 
L 2906 4863 
L 3481 4863 
L 3481 0 
L 2906 0 
L 2906 525 
Q 2725 213 2448 61 
Q 2172 -91 1784 -91 
Q 1150 -91 751 415 
Q 353 922 353 1747 
Q 353 2572 751 3078 
Q 1150 3584 1784 3584 
Q 2172 3584 2448 3432 
Q 2725 3281 2906 2969 
z
M 947 1747 
Q 947 1113 1208 752 
Q 1469 391 1925 391 
Q 2381 391 2643 752 
Q 2906 1113 2906 1747 
Q 2906 2381 2643 2742 
Q 2381 3103 1925 3103 
Q 1469 3103 1208 2742 
Q 947 2381 947 1747 
z
" id="DejaVuSans-64" transform="scale(0.015625)"/>
      <path d="M 2194 1759 
Q 1497 1759 1228 1600 
Q 959 1441 959 1056 
Q 959 750 1161 570 
Q 1363 391 1709 391 
Q 2188 391 2477 730 
Q 2766 1069 2766 1631 
L 2766 1759 
L 2194 1759 
z
M 3341 1997 
L 3341 0 
L 2766 0 
L 2766 531 
Q 2569 213 2275 61 
Q 1981 -91 1556 -91 
Q 1019 -91 701 211 
Q 384 513 384 1019 
Q 384 1609 779 1909 
Q 1175 2209 1959 2209 
L 2766 2209 
L 2766 2266 
Q 2766 2663 2505 2880 
Q 2244 3097 1772 3097 
Q 1472 3097 1187 3025 
Q 903 2953 641 2809 
L 641 3341 
Q 956 3463 1253 3523 
Q 1550 3584 1831 3584 
Q 2591 3584 2966 3190 
Q 3341 2797 3341 1997 
z
" id="DejaVuSans-61" transform="scale(0.015625)"/>
      <path d="M 3513 2113 
L 3513 0 
L 2938 0 
L 2938 2094 
Q 2938 2591 2744 2837 
Q 2550 3084 2163 3084 
Q 1697 3084 1428 2787 
Q 1159 2491 1159 1978 
L 1159 0 
L 581 0 
L 581 3500 
L 1159 3500 
L 1159 2956 
Q 1366 3272 1645 3428 
Q 1925 3584 2291 3584 
Q 2894 3584 3203 3211 
Q 3513 2838 3513 2113 
z
" id="DejaVuSans-6e" transform="scale(0.015625)"/>
      <path d="M 2631 2963 
Q 2534 3019 2420 3045 
Q 2306 3072 2169 3072 
Q 1681 3072 1420 2755 
Q 1159 2438 1159 1844 
L 1159 0 
L 581 0 
L 581 3500 
L 1159 3500 
L 1159 2956 
Q 1341 3275 1631 3429 
Q 1922 3584 2338 3584 
Q 2397 3584 2469 3576 
Q 2541 3569 2628 3553 
L 2631 2963 
z
" id="DejaVuSans-72" transform="scale(0.015625)"/>
      <path d="M 2906 1791 
Q 2906 2416 2648 2759 
Q 2391 3103 1925 3103 
Q 1463 3103 1205 2759 
Q 947 2416 947 1791 
Q 947 1169 1205 825 
Q 1463 481 1925 481 
Q 2391 481 2648 825 
Q 2906 1169 2906 1791 
z
M 3481 434 
Q 3481 -459 3084 -895 
Q 2688 -1331 1869 -1331 
Q 1566 -1331 1297 -1286 
Q 1028 -1241 775 -1147 
L 775 -588 
Q 1028 -725 1275 -790 
Q 1522 -856 1778 -856 
Q 2344 -856 2625 -561 
Q 2906 -266 2906 331 
L 2906 616 
Q 2728 306 2450 153 
Q 2172 0 1784 0 
Q 1141 0 747 490 
Q 353 981 353 1791 
Q 353 2603 747 3093 
Q 1141 3584 1784 3584 
Q 2172 3584 2450 3431 
Q 2728 3278 2906 2969 
L 2906 3500 
L 3481 3500 
L 3481 434 
z
" id="DejaVuSans-67" transform="scale(0.015625)"/>
      <path d="M 269 3500 
L 844 3500 
L 1563 769 
L 2278 3500 
L 2956 3500 
L 3675 769 
L 4391 3500 
L 4966 3500 
L 4050 0 
L 3372 0 
L 2619 2869 
L 1863 0 
L 1184 0 
L 269 3500 
z
" id="DejaVuSans-77" transform="scale(0.015625)"/>
      <path d="M 1172 4494 
L 1172 3500 
L 2356 3500 
L 2356 3053 
L 1172 3053 
L 1172 1153 
Q 1172 725 1289 603 
Q 1406 481 1766 481 
L 2356 481 
L 2356 0 
L 1766 0 
Q 1100 0 847 248 
Q 594 497 594 1153 
L 594 3053 
L 172 3053 
L 172 3500 
L 594 3500 
L 594 4494 
L 1172 4494 
z
" id="DejaVuSans-74" transform="scale(0.015625)"/>
      <path d="M 3597 1894 
L 3597 1613 
L 953 1613 
Q 991 1019 1311 708 
Q 1631 397 2203 397 
Q 2534 397 2845 478 
Q 3156 559 3463 722 
L 3463 178 
Q 3153 47 2828 -22 
Q 2503 -91 2169 -91 
Q 1331 -91 842 396 
Q 353 884 353 1716 
Q 353 2575 817 3079 
Q 1281 3584 2069 3584 
Q 2775 3584 3186 3129 
Q 3597 2675 3597 1894 
z
M 3022 2063 
Q 3016 2534 2758 2815 
Q 2500 3097 2075 3097 
Q 1594 3097 1305 2825 
Q 1016 2553 972 2059 
L 3022 2063 
z
" id="DejaVuSans-65" transform="scale(0.015625)"/>
      <path d="M 3328 2828 
Q 3544 3216 3844 3400 
Q 4144 3584 4550 3584 
Q 5097 3584 5394 3201 
Q 5691 2819 5691 2113 
L 5691 0 
L 5113 0 
L 5113 2094 
Q 5113 2597 4934 2840 
Q 4756 3084 4391 3084 
Q 3944 3084 3684 2787 
Q 3425 2491 3425 1978 
L 3425 0 
L 2847 0 
L 2847 2094 
Q 2847 2600 2669 2842 
Q 2491 3084 2119 3084 
Q 1678 3084 1418 2786 
Q 1159 2488 1159 1978 
L 1159 0 
L 581 0 
L 581 3500 
L 1159 3500 
L 1159 2956 
Q 1356 3278 1631 3431 
Q 1906 3584 2284 3584 
Q 2666 3584 2933 3390 
Q 3200 3197 3328 2828 
z
" id="DejaVuSans-6d" transform="scale(0.015625)"/>
      <path d="M 544 1381 
L 544 3500 
L 1119 3500 
L 1119 1403 
Q 1119 906 1312 657 
Q 1506 409 1894 409 
Q 2359 409 2629 706 
Q 2900 1003 2900 1516 
L 2900 3500 
L 3475 3500 
L 3475 0 
L 2900 0 
L 2900 538 
Q 2691 219 2414 64 
Q 2138 -91 1772 -91 
Q 1169 -91 856 284 
Q 544 659 544 1381 
z
M 1991 3584 
L 1991 3584 
z
" id="DejaVuSans-75" transform="scale(0.015625)"/>
      <path d="M 2834 3397 
L 2834 2853 
Q 2591 2978 2328 3040 
Q 2066 3103 1784 3103 
Q 1356 3103 1142 2972 
Q 928 2841 928 2578 
Q 928 2378 1081 2264 
Q 1234 2150 1697 2047 
L 1894 2003 
Q 2506 1872 2764 1633 
Q 3022 1394 3022 966 
Q 3022 478 2636 193 
Q 2250 -91 1575 -91 
Q 1294 -91 989 -36 
Q 684 19 347 128 
L 347 722 
Q 666 556 975 473 
Q 1284 391 1588 391 
Q 1994 391 2212 530 
Q 2431 669 2431 922 
Q 2431 1156 2273 1281 
Q 2116 1406 1581 1522 
L 1381 1569 
Q 847 1681 609 1914 
Q 372 2147 372 2553 
Q 372 3047 722 3315 
Q 1072 3584 1716 3584 
Q 2034 3584 2315 3537 
Q 2597 3491 2834 3397 
z
" id="DejaVuSans-73" transform="scale(0.015625)"/>
      <path d="M 191 3500 
L 800 3500 
L 1894 563 
L 2988 3500 
L 3597 3500 
L 2284 0 
L 1503 0 
L 191 3500 
z
" id="DejaVuSans-76" transform="scale(0.015625)"/>
      <path d="M 1947 4863 
L 1947 -844 
L 622 -844 
L 622 -397 
L 1369 -397 
L 1369 4416 
L 622 4416 
L 622 4863 
L 1947 4863 
z
" id="DejaVuSans-5d" transform="scale(0.015625)"/>
     </defs>
     <use xlink:href="#DejaVuSans-5b"/>
     <use x="39.013672" xlink:href="#DejaVuSans-43"/>
     <use x="108.837891" xlink:href="#DejaVuSans-6c"/>
     <use x="136.621094" xlink:href="#DejaVuSans-69"/>
     <use x="164.404297" xlink:href="#DejaVuSans-63"/>
     <use x="219.384766" xlink:href="#DejaVuSans-6b"/>
     <use x="277.294922" xlink:href="#DejaVuSans-2c"/>
     <use x="309.082031" xlink:href="#DejaVuSans-20"/>
     <use x="340.869141" xlink:href="#DejaVuSans-68"/>
     <use x="404.248047" xlink:href="#DejaVuSans-6f"/>
     <use x="465.429688" xlink:href="#DejaVuSans-6c"/>
     <use x="493.212891" xlink:href="#DejaVuSans-64"/>
     <use x="556.689453" xlink:href="#DejaVuSans-20"/>
     <use x="588.476562" xlink:href="#DejaVuSans-61"/>
     <use x="649.755859" xlink:href="#DejaVuSans-6e"/>
     <use x="713.134766" xlink:href="#DejaVuSans-64"/>
     <use x="776.611328" xlink:href="#DejaVuSans-20"/>
     <use x="808.398438" xlink:href="#DejaVuSans-64"/>
     <use x="871.875" xlink:href="#DejaVuSans-72"/>
     <use x="912.988281" xlink:href="#DejaVuSans-61"/>
     <use x="974.267578" xlink:href="#DejaVuSans-67"/>
     <use x="1037.744141" xlink:href="#DejaVuSans-20"/>
     <use x="1069.53125" xlink:href="#DejaVuSans-77"/>
     <use x="1151.318359" xlink:href="#DejaVuSans-69"/>
     <use x="1179.101562" xlink:href="#DejaVuSans-74"/>
     <use x="1218.310547" xlink:href="#DejaVuSans-68"/>
     <use x="1281.689453" xlink:href="#DejaVuSans-20"/>
     <use x="1313.476562" xlink:href="#DejaVuSans-74"/>
     <use x="1352.685547" xlink:href="#DejaVuSans-68"/>
     <use x="1416.064453" xlink:href="#DejaVuSans-65"/>
     <use x="1477.587891" xlink:href="#DejaVuSans-20"/>
     <use x="1509.375" xlink:href="#DejaVuSans-6d"/>
     <use x="1606.787109" xlink:href="#DejaVuSans-6f"/>
     <use x="1667.96875" xlink:href="#DejaVuSans-75"/>
     <use x="1731.347656" xlink:href="#DejaVuSans-73"/>
     <use x="1783.447266" xlink:href="#DejaVuSans-65"/>
     <use x="1844.970703" xlink:href="#DejaVuSans-20"/>
     <use x="1876.757812" xlink:href="#DejaVuSans-74"/>
     <use x="1915.966797" xlink:href="#DejaVuSans-6f"/>
     <use x="1977.148438" xlink:href="#DejaVuSans-20"/>
     <use x="2008.935547" xlink:href="#DejaVuSans-72"/>
     <use x="2047.798828" xlink:href="#DejaVuSans-6f"/>
     <use x="2108.980469" xlink:href="#DejaVuSans-74"/>
     <use x="2148.189453" xlink:href="#DejaVuSans-61"/>
     <use x="2209.46875" xlink:href="#DejaVuSans-74"/>
     <use x="2248.677734" xlink:href="#DejaVuSans-65"/>
     <use x="2310.201172" xlink:href="#DejaVuSans-20"/>
     <use x="2341.988281" xlink:href="#DejaVuSans-74"/>
     <use x="2381.197266" xlink:href="#DejaVuSans-68"/>
     <use x="2444.576172" xlink:href="#DejaVuSans-65"/>
     <use x="2506.099609" xlink:href="#DejaVuSans-20"/>
     <use x="2537.886719" xlink:href="#DejaVuSans-76"/>
     <use x="2597.066406" xlink:href="#DejaVuSans-69"/>
     <use x="2624.849609" xlink:href="#DejaVuSans-65"/>
     <use x="2686.373047" xlink:href="#DejaVuSans-77"/>
     <use x="2768.160156" xlink:href="#DejaVuSans-5d"/>
    </g>
   </g>
  </g>
 </g>
 <defs>
  <clipPath id="p1f73ba6864">
   <rect height="332.64" width="332.64" x="55.08" y="51.84"/>
  </clipPath>
 </defs>
</svg>
