<?xml version="1.0" encoding="utf-8" standalone="no"?>
<!DOCTYPE svg PUBLIC "-//W3C//DTD SVG 1.1//EN"
  "http://www.w3.org/Graphics/SVG/1.1/DTD/svg11.dtd">
<svg height="432pt" version="1.1" viewBox="0 0 432 432" width="432pt" xmlns="http://www.w3.org/2000/svg" xmlns:xlink="http://www.w3.org/1999/xlink">
 <metadata>
  <rdf:RDF xmlns:cc="http://creativecommons.org/ns#" xmlns:dc="http://purl.org/dc/elements/1.1/" xmlns:rdf="http://www.w3.org/1999/02/22-rdf-syntax-ns#">
   <cc:Work>
    <dc:type rdf:resource="http://purl.org/dc/dcmitype/StillImage"/>
    <dc:date>2022-03-15T14:21:16.432469</dc:date>
    <dc:format>image/svg+xml</dc:format>
    <dc:creator>
     <cc:Agent>
      <dc:title>Matplotlib v3.4.3, https://matplotlib.org/</dc:title>
     </cc:Agent>
    </dc:creator>
   </cc:Work>
  </rdf:RDF>
 </metadata>
 <defs>
  <style type="text/css">*{stroke-linecap:butt;stroke-linejoin:round;}</style>
 </defs>
 <g id="figure_1">
  <g id="patch_1">
   <path d="M 0 432 
L 432 432 
L 432 0 
L 0 0 
z
" style="fill:#ffffff;"/>
  </g>
  <g id="patch_2">
   <path d="M 55.08 384.48 
L 387.72 384.48 
L 387.72 51.84 
L 55.08 51.84 
z
" style="fill:#ffffff;"/>
  </g>
  <g id="pane3d_1">
   <g id="patch_3">
    <path d="M 74.169712 160.949411 
L 185.746948 80.484075 
L 187.309847 214.897696 
L 80.617405 304.261782 
" style="fill:#f2f2f2;opacity:0.5;stroke:#f2f2f2;stroke-linejoin:miter;"/>
   </g>
  </g>
  <g id="pane3d_2">
   <g id="patch_4">
    <path d="M 185.746948 80.484075 
L 371.361754 122.950154 
L 365.424627 262.142967 
L 187.309847 214.897696 
" style="fill:#e6e6e6;opacity:0.5;stroke:#e6e6e6;stroke-linejoin:miter;"/>
   </g>
  </g>
  <g id="pane3d_3">
   <g id="patch_5">
    <path d="M 80.617405 304.261782 
L 270.254298 360.814433 
L 365.424627 262.142967 
L 187.309847 214.897696 
" style="fill:#ececec;opacity:0.5;stroke:#ececec;stroke-linejoin:miter;"/>
   </g>
  </g>
  <g id="axis3d_1">
   <g id="line2d_1">
    <path d="M 80.617405 304.261782 
L 270.254298 360.814433 
" style="fill:none;stroke:#000000;stroke-linecap:square;stroke-width:0.8;"/>
   </g>
   <g id="text_1">
    <!-- X -->
    <g transform="translate(153.786971 369.777229)scale(0.1 -0.1)">
     <defs>
      <path d="M 403 4666 
L 1081 4666 
L 2241 2931 
L 3406 4666 
L 4084 4666 
L 2584 2425 
L 4184 0 
L 3506 0 
L 2194 1984 
L 872 0 
L 191 0 
L 1856 2491 
L 403 4666 
z
" id="DejaVuSans-58" transform="scale(0.015625)"/>
     </defs>
     <use xlink:href="#DejaVuSans-58"/>
    </g>
   </g>
   <g id="xtick_1">
    <g id="line2d_2">
     <path d="M 85.151824 304.555429 
L 82.359602 306.903176 
" style="fill:none;stroke:#000000;stroke-linecap:square;stroke-width:0.8;"/>
    </g>
    <g id="text_2">
     <!-- −1.00 -->
     <g transform="translate(61.558933 328.589645)scale(0.1 -0.1)">
      <defs>
       <path d="M 678 2272 
L 4684 2272 
L 4684 1741 
L 678 1741 
L 678 2272 
z
" id="DejaVuSans-2212" transform="scale(0.015625)"/>
       <path d="M 794 531 
L 1825 531 
L 1825 4091 
L 703 3866 
L 703 4441 
L 1819 4666 
L 2450 4666 
L 2450 531 
L 3481 531 
L 3481 0 
L 794 0 
L 794 531 
z
" id="DejaVuSans-31" transform="scale(0.015625)"/>
       <path d="M 684 794 
L 1344 794 
L 1344 0 
L 684 0 
L 684 794 
z
" id="DejaVuSans-2e" transform="scale(0.015625)"/>
       <path d="M 2034 4250 
Q 1547 4250 1301 3770 
Q 1056 3291 1056 2328 
Q 1056 1369 1301 889 
Q 1547 409 2034 409 
Q 2525 409 2770 889 
Q 3016 1369 3016 2328 
Q 3016 3291 2770 3770 
Q 2525 4250 2034 4250 
z
M 2034 4750 
Q 2819 4750 3233 4129 
Q 3647 3509 3647 2328 
Q 3647 1150 3233 529 
Q 2819 -91 2034 -91 
Q 1250 -91 836 529 
Q 422 1150 422 2328 
Q 422 3509 836 4129 
Q 1250 4750 2034 4750 
z
" id="DejaVuSans-30" transform="scale(0.015625)"/>
      </defs>
      <use xlink:href="#DejaVuSans-2212"/>
      <use x="83.789062" xlink:href="#DejaVuSans-31"/>
      <use x="147.412109" xlink:href="#DejaVuSans-2e"/>
      <use x="179.199219" xlink:href="#DejaVuSans-30"/>
      <use x="242.822266" xlink:href="#DejaVuSans-30"/>
     </g>
    </g>
   </g>
   <g id="xtick_2">
    <g id="line2d_3">
     <path d="M 106.92553 311.042235 
L 104.164562 313.418707 
" style="fill:none;stroke:#000000;stroke-linecap:square;stroke-width:0.8;"/>
    </g>
    <g id="text_3">
     <!-- −0.75 -->
     <g transform="translate(83.369957 335.203174)scale(0.1 -0.1)">
      <defs>
       <path d="M 525 4666 
L 3525 4666 
L 3525 4397 
L 1831 0 
L 1172 0 
L 2766 4134 
L 525 4134 
L 525 4666 
z
" id="DejaVuSans-37" transform="scale(0.015625)"/>
       <path d="M 691 4666 
L 3169 4666 
L 3169 4134 
L 1269 4134 
L 1269 2991 
Q 1406 3038 1543 3061 
Q 1681 3084 1819 3084 
Q 2600 3084 3056 2656 
Q 3513 2228 3513 1497 
Q 3513 744 3044 326 
Q 2575 -91 1722 -91 
Q 1428 -91 1123 -41 
Q 819 9 494 109 
L 494 744 
Q 775 591 1075 516 
Q 1375 441 1709 441 
Q 2250 441 2565 725 
Q 2881 1009 2881 1497 
Q 2881 1984 2565 2268 
Q 2250 2553 1709 2553 
Q 1456 2553 1204 2497 
Q 953 2441 691 2322 
L 691 4666 
z
" id="DejaVuSans-35" transform="scale(0.015625)"/>
      </defs>
      <use xlink:href="#DejaVuSans-2212"/>
      <use x="83.789062" xlink:href="#DejaVuSans-30"/>
      <use x="147.412109" xlink:href="#DejaVuSans-2e"/>
      <use x="179.199219" xlink:href="#DejaVuSans-37"/>
      <use x="242.822266" xlink:href="#DejaVuSans-35"/>
     </g>
    </g>
   </g>
   <g id="xtick_3">
    <g id="line2d_4">
     <path d="M 128.96616 317.608563 
L 126.237426 320.01429 
" style="fill:none;stroke:#000000;stroke-linecap:square;stroke-width:0.8;"/>
    </g>
    <g id="text_4">
     <!-- −0.50 -->
     <g transform="translate(105.449448 341.898107)scale(0.1 -0.1)">
      <use xlink:href="#DejaVuSans-2212"/>
      <use x="83.789062" xlink:href="#DejaVuSans-30"/>
      <use x="147.412109" xlink:href="#DejaVuSans-2e"/>
      <use x="179.199219" xlink:href="#DejaVuSans-35"/>
      <use x="242.822266" xlink:href="#DejaVuSans-30"/>
     </g>
    </g>
   </g>
   <g id="xtick_4">
    <g id="line2d_5">
     <path d="M 151.278652 324.255884 
L 148.58316 326.69141 
" style="fill:none;stroke:#000000;stroke-linecap:square;stroke-width:0.8;"/>
    </g>
    <g id="text_5">
     <!-- −0.25 -->
     <g transform="translate(127.802394 348.675956)scale(0.1 -0.1)">
      <defs>
       <path d="M 1228 531 
L 3431 531 
L 3431 0 
L 469 0 
L 469 531 
Q 828 903 1448 1529 
Q 2069 2156 2228 2338 
Q 2531 2678 2651 2914 
Q 2772 3150 2772 3378 
Q 2772 3750 2511 3984 
Q 2250 4219 1831 4219 
Q 1534 4219 1204 4116 
Q 875 4013 500 3803 
L 500 4441 
Q 881 4594 1212 4672 
Q 1544 4750 1819 4750 
Q 2544 4750 2975 4387 
Q 3406 4025 3406 3419 
Q 3406 3131 3298 2873 
Q 3191 2616 2906 2266 
Q 2828 2175 2409 1742 
Q 1991 1309 1228 531 
z
" id="DejaVuSans-32" transform="scale(0.015625)"/>
      </defs>
      <use xlink:href="#DejaVuSans-2212"/>
      <use x="83.789062" xlink:href="#DejaVuSans-30"/>
      <use x="147.412109" xlink:href="#DejaVuSans-2e"/>
      <use x="179.199219" xlink:href="#DejaVuSans-32"/>
      <use x="242.822266" xlink:href="#DejaVuSans-35"/>
     </g>
    </g>
   </g>
   <g id="xtick_5">
    <g id="line2d_6">
     <path d="M 173.868067 330.985706 
L 171.206857 333.451588 
" style="fill:none;stroke:#000000;stroke-linecap:square;stroke-width:0.8;"/>
    </g>
    <g id="text_6">
     <!-- 0.00 -->
     <g transform="translate(154.62375 355.538273)scale(0.1 -0.1)">
      <use xlink:href="#DejaVuSans-30"/>
      <use x="63.623047" xlink:href="#DejaVuSans-2e"/>
      <use x="95.410156" xlink:href="#DejaVuSans-30"/>
      <use x="159.033203" xlink:href="#DejaVuSans-30"/>
     </g>
    </g>
   </g>
   <g id="xtick_6">
    <g id="line2d_7">
     <path d="M 196.739593 337.799574 
L 194.113736 340.296383 
" style="fill:none;stroke:#000000;stroke-linecap:square;stroke-width:0.8;"/>
    </g>
    <g id="text_7">
     <!-- 0.25 -->
     <g transform="translate(177.539068 362.486645)scale(0.1 -0.1)">
      <use xlink:href="#DejaVuSans-30"/>
      <use x="63.623047" xlink:href="#DejaVuSans-2e"/>
      <use x="95.410156" xlink:href="#DejaVuSans-32"/>
      <use x="159.033203" xlink:href="#DejaVuSans-35"/>
     </g>
    </g>
   </g>
   <g id="xtick_7">
    <g id="line2d_8">
     <path d="M 219.898549 344.699073 
L 217.309147 347.227394 
" style="fill:none;stroke:#000000;stroke-linecap:square;stroke-width:0.8;"/>
    </g>
    <g id="text_8">
     <!-- 0.50 -->
     <g transform="translate(200.743565 369.522701)scale(0.1 -0.1)">
      <use xlink:href="#DejaVuSans-30"/>
      <use x="63.623047" xlink:href="#DejaVuSans-2e"/>
      <use x="95.410156" xlink:href="#DejaVuSans-35"/>
      <use x="159.033203" xlink:href="#DejaVuSans-30"/>
     </g>
    </g>
   </g>
   <g id="xtick_8">
    <g id="line2d_9">
     <path d="M 243.350385 351.685827 
L 240.798576 354.24626 
" style="fill:none;stroke:#000000;stroke-linecap:square;stroke-width:0.8;"/>
    </g>
    <g id="text_9">
     <!-- 0.75 -->
     <g transform="translate(224.242749 376.648113)scale(0.1 -0.1)">
      <use xlink:href="#DejaVuSans-30"/>
      <use x="63.623047" xlink:href="#DejaVuSans-2e"/>
      <use x="95.410156" xlink:href="#DejaVuSans-37"/>
      <use x="159.033203" xlink:href="#DejaVuSans-35"/>
     </g>
    </g>
   </g>
   <g id="xtick_9">
    <g id="line2d_10">
     <path d="M 267.100694 358.761501 
L 264.587648 361.354663 
" style="fill:none;stroke:#000000;stroke-linecap:square;stroke-width:0.8;"/>
    </g>
    <g id="text_10">
     <!-- 1.00 -->
     <g transform="translate(248.04227 383.864593)scale(0.1 -0.1)">
      <use xlink:href="#DejaVuSans-31"/>
      <use x="63.623047" xlink:href="#DejaVuSans-2e"/>
      <use x="95.410156" xlink:href="#DejaVuSans-30"/>
      <use x="159.033203" xlink:href="#DejaVuSans-30"/>
     </g>
    </g>
   </g>
  </g>
  <g id="axis3d_2">
   <g id="line2d_11">
    <path d="M 365.424627 262.142967 
L 270.254298 360.814433 
" style="fill:none;stroke:#000000;stroke-linecap:square;stroke-width:0.8;"/>
   </g>
   <g id="text_11">
    <!-- Z -->
    <g transform="translate(343.912377 339.682626)scale(0.1 -0.1)">
     <defs>
      <path d="M 359 4666 
L 4025 4666 
L 4025 4184 
L 1075 531 
L 4097 531 
L 4097 0 
L 288 0 
L 288 481 
L 3238 4134 
L 359 4134 
L 359 4666 
z
" id="DejaVuSans-5a" transform="scale(0.015625)"/>
     </defs>
     <use xlink:href="#DejaVuSans-5a"/>
    </g>
   </g>
   <g id="xtick_10">
    <g id="line2d_12">
     <path d="M 270.742564 358.18029 
L 275.531094 359.604763 
" style="fill:none;stroke:#000000;stroke-linecap:square;stroke-width:0.8;"/>
    </g>
    <g id="text_12">
     <!-- 1.00 -->
     <g transform="translate(274.312415 379.611327)scale(0.1 -0.1)">
      <use xlink:href="#DejaVuSans-31"/>
      <use x="63.623047" xlink:href="#DejaVuSans-2e"/>
      <use x="95.410156" xlink:href="#DejaVuSans-30"/>
      <use x="159.033203" xlink:href="#DejaVuSans-30"/>
     </g>
    </g>
   </g>
   <g id="xtick_11">
    <g id="line2d_13">
     <path d="M 283.087517 345.405496 
L 287.836825 346.797593 
" style="fill:none;stroke:#000000;stroke-linecap:square;stroke-width:0.8;"/>
    </g>
    <g id="text_13">
     <!-- 1.25 -->
     <g transform="translate(286.501219 366.66601)scale(0.1 -0.1)">
      <use xlink:href="#DejaVuSans-31"/>
      <use x="63.623047" xlink:href="#DejaVuSans-2e"/>
      <use x="95.410156" xlink:href="#DejaVuSans-32"/>
      <use x="159.033203" xlink:href="#DejaVuSans-35"/>
     </g>
    </g>
   </g>
   <g id="xtick_12">
    <g id="line2d_14">
     <path d="M 295.153638 332.919242 
L 299.864265 334.280054 
" style="fill:none;stroke:#000000;stroke-linecap:square;stroke-width:0.8;"/>
    </g>
    <g id="text_14">
     <!-- 1.50 -->
     <g transform="translate(298.414456 354.013364)scale(0.1 -0.1)">
      <use xlink:href="#DejaVuSans-31"/>
      <use x="63.623047" xlink:href="#DejaVuSans-2e"/>
      <use x="95.410156" xlink:href="#DejaVuSans-35"/>
      <use x="159.033203" xlink:href="#DejaVuSans-30"/>
     </g>
    </g>
   </g>
   <g id="xtick_13">
    <g id="line2d_15">
     <path d="M 306.950269 320.711861 
L 311.622748 322.042431 
" style="fill:none;stroke:#000000;stroke-linecap:square;stroke-width:0.8;"/>
    </g>
    <g id="text_15">
     <!-- 1.75 -->
     <g transform="translate(310.061365 341.643575)scale(0.1 -0.1)">
      <use xlink:href="#DejaVuSans-31"/>
      <use x="63.623047" xlink:href="#DejaVuSans-2e"/>
      <use x="95.410156" xlink:href="#DejaVuSans-37"/>
      <use x="159.033203" xlink:href="#DejaVuSans-35"/>
     </g>
    </g>
   </g>
   <g id="xtick_14">
    <g id="line2d_16">
     <path d="M 318.486339 308.774113 
L 323.121196 310.075439 
" style="fill:none;stroke:#000000;stroke-linecap:square;stroke-width:0.8;"/>
    </g>
    <g id="text_16">
     <!-- 2.00 -->
     <g transform="translate(321.450779 329.547264)scale(0.1 -0.1)">
      <use xlink:href="#DejaVuSans-32"/>
      <use x="63.623047" xlink:href="#DejaVuSans-2e"/>
      <use x="95.410156" xlink:href="#DejaVuSans-30"/>
      <use x="159.033203" xlink:href="#DejaVuSans-30"/>
     </g>
    </g>
   </g>
   <g id="xtick_15">
    <g id="line2d_17">
     <path d="M 329.770386 297.097164 
L 334.36814 298.370199 
" style="fill:none;stroke:#000000;stroke-linecap:square;stroke-width:0.8;"/>
    </g>
    <g id="text_17">
     <!-- 2.25 -->
     <g transform="translate(332.591144 317.715459)scale(0.1 -0.1)">
      <use xlink:href="#DejaVuSans-32"/>
      <use x="63.623047" xlink:href="#DejaVuSans-2e"/>
      <use x="95.410156" xlink:href="#DejaVuSans-32"/>
      <use x="159.033203" xlink:href="#DejaVuSans-35"/>
     </g>
    </g>
   </g>
   <g id="xtick_16">
    <g id="line2d_18">
     <path d="M 340.81058 285.672559 
L 345.371744 286.918216 
" style="fill:none;stroke:#000000;stroke-linecap:square;stroke-width:0.8;"/>
    </g>
    <g id="text_18">
     <!-- 2.50 -->
     <g transform="translate(343.49054 306.139578)scale(0.1 -0.1)">
      <use xlink:href="#DejaVuSans-32"/>
      <use x="63.623047" xlink:href="#DejaVuSans-2e"/>
      <use x="95.410156" xlink:href="#DejaVuSans-35"/>
      <use x="159.033203" xlink:href="#DejaVuSans-30"/>
     </g>
    </g>
   </g>
   <g id="xtick_17">
    <g id="line2d_19">
     <path d="M 351.614741 274.492206 
L 356.13982 275.711357 
" style="fill:none;stroke:#000000;stroke-linecap:square;stroke-width:0.8;"/>
    </g>
    <g id="text_19">
     <!-- 2.75 -->
     <g transform="translate(354.156702 294.811408)scale(0.1 -0.1)">
      <use xlink:href="#DejaVuSans-32"/>
      <use x="63.623047" xlink:href="#DejaVuSans-2e"/>
      <use x="95.410156" xlink:href="#DejaVuSans-37"/>
      <use x="159.033203" xlink:href="#DejaVuSans-35"/>
     </g>
    </g>
   </g>
   <g id="xtick_18">
    <g id="line2d_20">
     <path d="M 362.190358 263.548354 
L 366.67985 264.741838 
" style="fill:none;stroke:#000000;stroke-linecap:square;stroke-width:0.8;"/>
    </g>
    <g id="text_20">
     <!-- 3.00 -->
     <g transform="translate(364.597038 283.723081)scale(0.1 -0.1)">
      <defs>
       <path d="M 2597 2516 
Q 3050 2419 3304 2112 
Q 3559 1806 3559 1356 
Q 3559 666 3084 287 
Q 2609 -91 1734 -91 
Q 1441 -91 1130 -33 
Q 819 25 488 141 
L 488 750 
Q 750 597 1062 519 
Q 1375 441 1716 441 
Q 2309 441 2620 675 
Q 2931 909 2931 1356 
Q 2931 1769 2642 2001 
Q 2353 2234 1838 2234 
L 1294 2234 
L 1294 2753 
L 1863 2753 
Q 2328 2753 2575 2939 
Q 2822 3125 2822 3475 
Q 2822 3834 2567 4026 
Q 2313 4219 1838 4219 
Q 1578 4219 1281 4162 
Q 984 4106 628 3988 
L 628 4550 
Q 988 4650 1302 4700 
Q 1616 4750 1894 4750 
Q 2613 4750 3031 4423 
Q 3450 4097 3450 3541 
Q 3450 3153 3228 2886 
Q 3006 2619 2597 2516 
z
" id="DejaVuSans-33" transform="scale(0.015625)"/>
      </defs>
      <use xlink:href="#DejaVuSans-33"/>
      <use x="63.623047" xlink:href="#DejaVuSans-2e"/>
      <use x="95.410156" xlink:href="#DejaVuSans-30"/>
      <use x="159.033203" xlink:href="#DejaVuSans-30"/>
     </g>
    </g>
   </g>
  </g>
  <g id="axis3d_3">
   <g id="line2d_21">
    <path d="M 365.424627 262.142967 
L 371.361754 122.950154 
" style="fill:none;stroke:#000000;stroke-linecap:square;stroke-width:0.8;"/>
   </g>
   <g id="text_21">
    <!-- Y -->
    <g transform="translate(405.320991 191.226335)scale(0.1 -0.1)">
     <defs>
      <path d="M -13 4666 
L 666 4666 
L 1959 2747 
L 3244 4666 
L 3922 4666 
L 2272 2222 
L 2272 0 
L 1638 0 
L 1638 2222 
L -13 4666 
z
" id="DejaVuSans-59" transform="scale(0.015625)"/>
     </defs>
     <use xlink:href="#DejaVuSans-59"/>
    </g>
   </g>
   <g id="xtick_19">
    <g id="line2d_22">
     <path d="M 369.680144 125.492387 
L 374.35768 126.56609 
" style="fill:none;stroke:#000000;stroke-linecap:square;stroke-width:0.8;"/>
    </g>
    <g id="text_22">
     <!-- −1.00 -->
     <g transform="translate(374.761381 131.030904)scale(0.1 -0.1)">
      <use xlink:href="#DejaVuSans-2212"/>
      <use x="83.789062" xlink:href="#DejaVuSans-31"/>
      <use x="147.412109" xlink:href="#DejaVuSans-2e"/>
      <use x="179.199219" xlink:href="#DejaVuSans-30"/>
      <use x="242.822266" xlink:href="#DejaVuSans-30"/>
     </g>
    </g>
   </g>
   <g id="xtick_20">
    <g id="line2d_23">
     <path d="M 368.950601 142.783288 
L 373.603495 143.872391 
" style="fill:none;stroke:#000000;stroke-linecap:square;stroke-width:0.8;"/>
    </g>
    <g id="text_23">
     <!-- −0.75 -->
     <g transform="translate(373.930238 148.292222)scale(0.1 -0.1)">
      <use xlink:href="#DejaVuSans-2212"/>
      <use x="83.789062" xlink:href="#DejaVuSans-30"/>
      <use x="147.412109" xlink:href="#DejaVuSans-2e"/>
      <use x="179.199219" xlink:href="#DejaVuSans-37"/>
      <use x="242.822266" xlink:href="#DejaVuSans-35"/>
     </g>
    </g>
   </g>
   <g id="xtick_21">
    <g id="line2d_24">
     <path d="M 368.228423 159.899611 
L 372.856933 161.003749 
" style="fill:none;stroke:#000000;stroke-linecap:square;stroke-width:0.8;"/>
    </g>
    <g id="text_24">
     <!-- −0.50 -->
     <g transform="translate(373.107469 165.379663)scale(0.1 -0.1)">
      <use xlink:href="#DejaVuSans-2212"/>
      <use x="83.789062" xlink:href="#DejaVuSans-30"/>
      <use x="147.412109" xlink:href="#DejaVuSans-2e"/>
      <use x="179.199219" xlink:href="#DejaVuSans-35"/>
      <use x="242.822266" xlink:href="#DejaVuSans-30"/>
     </g>
    </g>
   </g>
   <g id="xtick_22">
    <g id="line2d_25">
     <path d="M 367.5135 176.843989 
L 372.117881 177.962805 
" style="fill:none;stroke:#000000;stroke-linecap:square;stroke-width:0.8;"/>
    </g>
    <g id="text_25">
     <!-- −0.25 -->
     <g transform="translate(372.292945 182.295841)scale(0.1 -0.1)">
      <use xlink:href="#DejaVuSans-2212"/>
      <use x="83.789062" xlink:href="#DejaVuSans-30"/>
      <use x="147.412109" xlink:href="#DejaVuSans-2e"/>
      <use x="179.199219" xlink:href="#DejaVuSans-32"/>
      <use x="242.822266" xlink:href="#DejaVuSans-35"/>
     </g>
    </g>
   </g>
   <g id="xtick_23">
    <g id="line2d_26">
     <path d="M 366.805723 193.618998 
L 371.386224 194.752144 
" style="fill:none;stroke:#000000;stroke-linecap:square;stroke-width:0.8;"/>
    </g>
    <g id="text_26">
     <!-- 0.00 -->
     <g transform="translate(375.676388 199.043318)scale(0.1 -0.1)">
      <use xlink:href="#DejaVuSans-30"/>
      <use x="63.623047" xlink:href="#DejaVuSans-2e"/>
      <use x="95.410156" xlink:href="#DejaVuSans-30"/>
      <use x="159.033203" xlink:href="#DejaVuSans-30"/>
     </g>
    </g>
   </g>
   <g id="xtick_24">
    <g id="line2d_27">
     <path d="M 366.104986 210.227165 
L 370.661853 211.374301 
" style="fill:none;stroke:#000000;stroke-linecap:square;stroke-width:0.8;"/>
    </g>
    <g id="text_27">
     <!-- 0.25 -->
     <g transform="translate(374.87799 215.624605)scale(0.1 -0.1)">
      <use xlink:href="#DejaVuSans-30"/>
      <use x="63.623047" xlink:href="#DejaVuSans-2e"/>
      <use x="95.410156" xlink:href="#DejaVuSans-32"/>
      <use x="159.033203" xlink:href="#DejaVuSans-35"/>
     </g>
    </g>
   </g>
   <g id="xtick_25">
    <g id="line2d_28">
     <path d="M 365.411183 226.670967 
L 369.944659 227.831762 
" style="fill:none;stroke:#000000;stroke-linecap:square;stroke-width:0.8;"/>
    </g>
    <g id="text_28">
     <!-- 0.50 -->
     <g transform="translate(374.087476 232.042164)scale(0.1 -0.1)">
      <use xlink:href="#DejaVuSans-30"/>
      <use x="63.623047" xlink:href="#DejaVuSans-2e"/>
      <use x="95.410156" xlink:href="#DejaVuSans-35"/>
      <use x="159.033203" xlink:href="#DejaVuSans-30"/>
     </g>
    </g>
   </g>
   <g id="xtick_26">
    <g id="line2d_29">
     <path d="M 364.724213 242.952833 
L 369.234536 244.126961 
" style="fill:none;stroke:#000000;stroke-linecap:square;stroke-width:0.8;"/>
    </g>
    <g id="text_29">
     <!-- 0.75 -->
     <g transform="translate(373.304728 248.298407)scale(0.1 -0.1)">
      <use xlink:href="#DejaVuSans-30"/>
      <use x="63.623047" xlink:href="#DejaVuSans-2e"/>
      <use x="95.410156" xlink:href="#DejaVuSans-37"/>
      <use x="159.033203" xlink:href="#DejaVuSans-35"/>
     </g>
    </g>
   </g>
   <g id="xtick_27">
    <g id="line2d_30">
     <path d="M 364.043975 259.075142 
L 368.531381 260.262288 
" style="fill:none;stroke:#000000;stroke-linecap:square;stroke-width:0.8;"/>
    </g>
    <g id="text_30">
     <!-- 1.00 -->
     <g transform="translate(372.529635 264.395701)scale(0.1 -0.1)">
      <use xlink:href="#DejaVuSans-31"/>
      <use x="63.623047" xlink:href="#DejaVuSans-2e"/>
      <use x="95.410156" xlink:href="#DejaVuSans-30"/>
      <use x="159.033203" xlink:href="#DejaVuSans-30"/>
     </g>
    </g>
   </g>
  </g>
  <g id="axes_1">
   <g id="Path3DCollection_1">
    <defs>
     <path d="M 0 1.118034 
C 0.296506 1.118034 0.580908 1.000231 0.790569 0.790569 
C 1.000231 0.580908 1.118034 0.296506 1.118034 -0 
C 1.118034 -0.296506 1.000231 -0.580908 0.790569 -0.790569 
C 0.580908 -1.000231 0.296506 -1.118034 0 -1.118034 
C -0.296506 -1.118034 -0.580908 -1.000231 -0.790569 -0.790569 
C -1.000231 -0.580908 -1.118034 -0.296506 -1.118034 0 
C -1.118034 0.296506 -1.000231 0.580908 -0.790569 0.790569 
C -0.580908 1.000231 -0.296506 1.118034 0 1.118034 
z
" id="C0_0_888983ae8c"/>
    </defs>
    <g clip-path="url(#pf64ce58507)">
     <use style="fill:#777372;stroke:#777372;" x="151.431122" xlink:href="#C0_0_888983ae8c" y="227.094366"/>
    </g>
    <g clip-path="url(#pf64ce58507)">
     <use style="fill:#4e4d4b;stroke:#4e4d4b;" x="148.57669" xlink:href="#C0_0_888983ae8c" y="234.076514"/>
    </g>
    <g clip-path="url(#pf64ce58507)">
     <use style="fill:#494947;stroke:#494947;" x="143.623481" xlink:href="#C0_0_888983ae8c" y="237.681758"/>
    </g>
    <g clip-path="url(#pf64ce58507)">
     <use style="fill:#787a75;stroke:#787a75;" x="146.684331" xlink:href="#C0_0_888983ae8c" y="239.7849"/>
    </g>
    <g clip-path="url(#pf64ce58507)">
     <use style="fill:#787a75;stroke:#787a75;" x="146.684331" xlink:href="#C0_0_888983ae8c" y="239.7849"/>
    </g>
    <g clip-path="url(#pf64ce58507)">
     <use style="fill:#434345;stroke:#434345;" x="146.45626" xlink:href="#C0_0_888983ae8c" y="239.817192"/>
    </g>
    <g clip-path="url(#pf64ce58507)">
     <use style="fill:#434345;stroke:#434345;" x="146.45626" xlink:href="#C0_0_888983ae8c" y="239.817192"/>
    </g>
    <g clip-path="url(#pf64ce58507)">
     <use style="fill:#7e7b72;stroke:#7e7b72;" x="145.349431" xlink:href="#C0_0_888983ae8c" y="242.986318"/>
    </g>
    <g clip-path="url(#pf64ce58507)">
     <use style="fill:#dde2e5;stroke:#dde2e5;" x="150.945969" xlink:href="#C0_0_888983ae8c" y="277.485797"/>
    </g>
    <g clip-path="url(#pf64ce58507)">
     <use style="fill:#615f60;stroke:#615f60;" x="141.619068" xlink:href="#C0_0_888983ae8c" y="252.203258"/>
    </g>
    <g clip-path="url(#pf64ce58507)">
     <use style="fill:#534e48;stroke:#534e48;" x="140.499024" xlink:href="#C0_0_888983ae8c" y="254.435824"/>
    </g>
    <g clip-path="url(#pf64ce58507)">
     <use style="fill:#7a7b76;stroke:#7a7b76;" x="139.029896" xlink:href="#C0_0_888983ae8c" y="257.932683"/>
    </g>
    <g clip-path="url(#pf64ce58507)">
     <use style="fill:#71716f;stroke:#71716f;" x="137.920107" xlink:href="#C0_0_888983ae8c" y="260.888605"/>
    </g>
    <g clip-path="url(#pf64ce58507)">
     <use style="fill:#62615d;stroke:#62615d;" x="137.382484" xlink:href="#C0_0_888983ae8c" y="261.575736"/>
    </g>
    <g clip-path="url(#pf64ce58507)">
     <use style="fill:#6e6159;stroke:#6e6159;" x="136.650898" xlink:href="#C0_0_888983ae8c" y="263.935083"/>
    </g>
    <g clip-path="url(#pf64ce58507)">
     <use style="fill:#706762;stroke:#706762;" x="135.681237" xlink:href="#C0_0_888983ae8c" y="265.805996"/>
    </g>
    <g clip-path="url(#pf64ce58507)">
     <use style="fill:#6f6e6a;stroke:#6f6e6a;" x="133.544265" xlink:href="#C0_0_888983ae8c" y="270.428096"/>
    </g>
    <g clip-path="url(#pf64ce58507)">
     <use style="fill:#45413e;stroke:#45413e;" x="133.247573" xlink:href="#C0_0_888983ae8c" y="271.094807"/>
    </g>
    <g clip-path="url(#pf64ce58507)">
     <use style="fill:#918684;stroke:#918684;" x="133.16811" xlink:href="#C0_0_888983ae8c" y="271.410029"/>
    </g>
    <g clip-path="url(#pf64ce58507)">
     <use style="fill:#786e65;stroke:#786e65;" x="132.162016" xlink:href="#C0_0_888983ae8c" y="273.138396"/>
    </g>
    <g clip-path="url(#pf64ce58507)">
     <use style="fill:#736a61;stroke:#736a61;" x="132.170327" xlink:href="#C0_0_888983ae8c" y="273.182622"/>
    </g>
    <g clip-path="url(#pf64ce58507)">
     <use style="fill:#706f6a;stroke:#706f6a;" x="130.633966" xlink:href="#C0_0_888983ae8c" y="276.48323"/>
    </g>
    <g clip-path="url(#pf64ce58507)">
     <use style="fill:#737371;stroke:#737371;" x="129.746726" xlink:href="#C0_0_888983ae8c" y="278.379595"/>
    </g>
    <g clip-path="url(#pf64ce58507)">
     <use style="fill:#686868;stroke:#686868;" x="192.285422" xlink:href="#C0_0_888983ae8c" y="290.400041"/>
    </g>
    <g clip-path="url(#pf64ce58507)">
     <use style="fill:#6c6d67;stroke:#6c6d67;" x="127.644414" xlink:href="#C0_0_888983ae8c" y="282.202125"/>
    </g>
    <g clip-path="url(#pf64ce58507)">
     <use style="fill:#5a585b;stroke:#5a585b;" x="183.924117" xlink:href="#C0_0_888983ae8c" y="288.680562"/>
    </g>
    <g clip-path="url(#pf64ce58507)">
     <use style="fill:#7b7778;stroke:#7b7778;" x="126.725859" xlink:href="#C0_0_888983ae8c" y="283.935002"/>
    </g>
    <g clip-path="url(#pf64ce58507)">
     <use style="fill:#7b7778;stroke:#7b7778;" x="126.725859" xlink:href="#C0_0_888983ae8c" y="283.935002"/>
    </g>
    <g clip-path="url(#pf64ce58507)">
     <use style="fill:#7b4d35;stroke:#7b4d35;" x="149.907827" xlink:href="#C0_0_888983ae8c" y="284.891341"/>
    </g>
    <g clip-path="url(#pf64ce58507)">
     <use style="fill:#7b4d35;stroke:#7b4d35;" x="149.907827" xlink:href="#C0_0_888983ae8c" y="284.891341"/>
    </g>
    <g clip-path="url(#pf64ce58507)">
     <use style="fill:#7d533a;stroke:#7d533a;" x="147.738268" xlink:href="#C0_0_888983ae8c" y="284.912607"/>
    </g>
    <g clip-path="url(#pf64ce58507)">
     <use style="fill:#946c48;stroke:#946c48;" x="146.850743" xlink:href="#C0_0_888983ae8c" y="285.248512"/>
    </g>
    <g clip-path="url(#pf64ce58507)">
     <use style="fill:#474843;stroke:#474843;" x="125.876567" xlink:href="#C0_0_888983ae8c" y="285.166001"/>
    </g>
    <g clip-path="url(#pf64ce58507)">
     <use style="fill:#706760;stroke:#706760;" x="126.055806" xlink:href="#C0_0_888983ae8c" y="285.305047"/>
    </g>
    <g clip-path="url(#pf64ce58507)">
     <use style="fill:#7a716a;stroke:#7a716a;" x="126.06438" xlink:href="#C0_0_888983ae8c" y="285.372266"/>
    </g>
    <g clip-path="url(#pf64ce58507)">
     <use style="fill:#815538;stroke:#815538;" x="145.238029" xlink:href="#C0_0_888983ae8c" y="285.536761"/>
    </g>
    <g clip-path="url(#pf64ce58507)">
     <use style="fill:#5b5853;stroke:#5b5853;" x="145.448107" xlink:href="#C0_0_888983ae8c" y="282.613809"/>
    </g>
    <g clip-path="url(#pf64ce58507)">
     <use style="fill:#767570;stroke:#767570;" x="180.993655" xlink:href="#C0_0_888983ae8c" y="287.518357"/>
    </g>
    <g clip-path="url(#pf64ce58507)">
     <use style="fill:#767570;stroke:#767570;" x="180.88261" xlink:href="#C0_0_888983ae8c" y="287.547522"/>
    </g>
    <g clip-path="url(#pf64ce58507)">
     <use style="fill:#6f6f71;stroke:#6f6f71;" x="125.091661" xlink:href="#C0_0_888983ae8c" y="286.814372"/>
    </g>
    <g clip-path="url(#pf64ce58507)">
     <use style="fill:#71726d;stroke:#71726d;" x="123.500311" xlink:href="#C0_0_888983ae8c" y="289.139574"/>
    </g>
    <g clip-path="url(#pf64ce58507)">
     <use style="fill:#494542;stroke:#494542;" x="124.759405" xlink:href="#C0_0_888983ae8c" y="289.468543"/>
    </g>
    <g clip-path="url(#pf64ce58507)">
     <use style="fill:#75716e;stroke:#75716e;" x="122.845787" xlink:href="#C0_0_888983ae8c" y="290.200494"/>
    </g>
    <g clip-path="url(#pf64ce58507)">
     <use style="fill:#6c6b69;stroke:#6c6b69;" x="123.424083" xlink:href="#C0_0_888983ae8c" y="290.349667"/>
    </g>
    <g clip-path="url(#pf64ce58507)">
     <use style="fill:#63605b;stroke:#63605b;" x="138.153799" xlink:href="#C0_0_888983ae8c" y="293.513364"/>
    </g>
    <g clip-path="url(#pf64ce58507)">
     <use style="fill:#676767;stroke:#676767;" x="122.644418" xlink:href="#C0_0_888983ae8c" y="291.052586"/>
    </g>
    <g clip-path="url(#pf64ce58507)">
     <use style="fill:#545045;stroke:#545045;" x="122.772655" xlink:href="#C0_0_888983ae8c" y="291.671719"/>
    </g>
    <g clip-path="url(#pf64ce58507)">
     <use style="fill:#7a7673;stroke:#7a7673;" x="121.388165" xlink:href="#C0_0_888983ae8c" y="291.831059"/>
    </g>
    <g clip-path="url(#pf64ce58507)">
     <use style="fill:#767571;stroke:#767571;" x="121.701785" xlink:href="#C0_0_888983ae8c" y="292.025747"/>
    </g>
    <g clip-path="url(#pf64ce58507)">
     <use style="fill:#878984;stroke:#878984;" x="121.659459" xlink:href="#C0_0_888983ae8c" y="292.542544"/>
    </g>
    <g clip-path="url(#pf64ce58507)">
     <use style="fill:#736e68;stroke:#736e68;" x="120.456757" xlink:href="#C0_0_888983ae8c" y="293.547131"/>
    </g>
    <g clip-path="url(#pf64ce58507)">
     <use style="fill:#3c3b39;stroke:#3c3b39;" x="120.998911" xlink:href="#C0_0_888983ae8c" y="293.94893"/>
    </g>
    <g clip-path="url(#pf64ce58507)">
     <use style="fill:#716d64;stroke:#716d64;" x="120.625238" xlink:href="#C0_0_888983ae8c" y="293.903896"/>
    </g>
    <g clip-path="url(#pf64ce58507)">
     <use style="fill:#7e7d78;stroke:#7e7d78;" x="120.837322" xlink:href="#C0_0_888983ae8c" y="294.19348"/>
    </g>
    <g clip-path="url(#pf64ce58507)">
     <use style="fill:#7e7d78;stroke:#7e7d78;" x="120.837322" xlink:href="#C0_0_888983ae8c" y="294.19348"/>
    </g>
    <g clip-path="url(#pf64ce58507)">
     <use style="fill:#363533;stroke:#363533;" x="120.401915" xlink:href="#C0_0_888983ae8c" y="294.236889"/>
    </g>
    <g clip-path="url(#pf64ce58507)">
     <use style="fill:#585453;stroke:#585453;" x="120.600677" xlink:href="#C0_0_888983ae8c" y="294.630931"/>
    </g>
    <g clip-path="url(#pf64ce58507)">
     <use style="fill:#7d7c78;stroke:#7d7c78;" x="119.614373" xlink:href="#C0_0_888983ae8c" y="296.056409"/>
    </g>
    <g clip-path="url(#pf64ce58507)">
     <use style="fill:#4e4f4a;stroke:#4e4f4a;" x="119.817236" xlink:href="#C0_0_888983ae8c" y="296.244394"/>
    </g>
    <g clip-path="url(#pf64ce58507)">
     <use style="fill:#605d58;stroke:#605d58;" x="148.851842" xlink:href="#C0_0_888983ae8c" y="292.277176"/>
    </g>
    <g clip-path="url(#pf64ce58507)">
     <use style="fill:#4c4942;stroke:#4c4942;" x="148.434152" xlink:href="#C0_0_888983ae8c" y="292.335083"/>
    </g>
    <g clip-path="url(#pf64ce58507)">
     <use style="fill:#262221;stroke:#262221;" x="147.795045" xlink:href="#C0_0_888983ae8c" y="292.421597"/>
    </g>
    <g clip-path="url(#pf64ce58507)">
     <use style="fill:#747570;stroke:#747570;" x="119.534964" xlink:href="#C0_0_888983ae8c" y="298.475103"/>
    </g>
    <g clip-path="url(#pf64ce58507)">
     <use style="fill:#464543;stroke:#464543;" x="141.496398" xlink:href="#C0_0_888983ae8c" y="294.69206"/>
    </g>
    <g clip-path="url(#pf64ce58507)">
     <use style="fill:#464644;stroke:#464644;" x="119.161121" xlink:href="#C0_0_888983ae8c" y="299.240266"/>
    </g>
    <g clip-path="url(#pf64ce58507)">
     <use style="fill:#4d4a45;stroke:#4d4a45;" x="132.98341" xlink:href="#C0_0_888983ae8c" y="298.932681"/>
    </g>
    <g clip-path="url(#pf64ce58507)">
     <use style="fill:#4d4946;stroke:#4d4946;" x="131.363217" xlink:href="#C0_0_888983ae8c" y="299.975734"/>
    </g>
    <g clip-path="url(#pf64ce58507)">
     <use style="fill:#48483e;stroke:#48483e;" x="117.349337" xlink:href="#C0_0_888983ae8c" y="303.576499"/>
    </g>
    <g clip-path="url(#pf64ce58507)">
     <use style="fill:#5b5a55;stroke:#5b5a55;" x="117.697524" xlink:href="#C0_0_888983ae8c" y="304.416821"/>
    </g>
    <g clip-path="url(#pf64ce58507)">
     <use style="fill:#585550;stroke:#585550;" x="117.194508" xlink:href="#C0_0_888983ae8c" y="304.500133"/>
    </g>
    <g clip-path="url(#pf64ce58507)">
     <use style="fill:#6e6d69;stroke:#6e6d69;" x="117.900195" xlink:href="#C0_0_888983ae8c" y="307.437606"/>
    </g>
    <g clip-path="url(#pf64ce58507)">
     <use style="fill:#6e6d69;stroke:#6e6d69;" x="117.900195" xlink:href="#C0_0_888983ae8c" y="307.437606"/>
    </g>
   </g>
   <g id="text_31">
    <!-- [Click, hold and drag with the mouse to rotate the view] -->
    <g transform="translate(52.9725 45.84)scale(0.12 -0.12)">
     <defs>
      <path d="M 550 4863 
L 1875 4863 
L 1875 4416 
L 1125 4416 
L 1125 -397 
L 1875 -397 
L 1875 -844 
L 550 -844 
L 550 4863 
z
" id="DejaVuSans-5b" transform="scale(0.015625)"/>
      <path d="M 4122 4306 
L 4122 3641 
Q 3803 3938 3442 4084 
Q 3081 4231 2675 4231 
Q 1875 4231 1450 3742 
Q 1025 3253 1025 2328 
Q 1025 1406 1450 917 
Q 1875 428 2675 428 
Q 3081 428 3442 575 
Q 3803 722 4122 1019 
L 4122 359 
Q 3791 134 3420 21 
Q 3050 -91 2638 -91 
Q 1578 -91 968 557 
Q 359 1206 359 2328 
Q 359 3453 968 4101 
Q 1578 4750 2638 4750 
Q 3056 4750 3426 4639 
Q 3797 4528 4122 4306 
z
" id="DejaVuSans-43" transform="scale(0.015625)"/>
      <path d="M 603 4863 
L 1178 4863 
L 1178 0 
L 603 0 
L 603 4863 
z
" id="DejaVuSans-6c" transform="scale(0.015625)"/>
      <path d="M 603 3500 
L 1178 3500 
L 1178 0 
L 603 0 
L 603 3500 
z
M 603 4863 
L 1178 4863 
L 1178 4134 
L 603 4134 
L 603 4863 
z
" id="DejaVuSans-69" transform="scale(0.015625)"/>
      <path d="M 3122 3366 
L 3122 2828 
Q 2878 2963 2633 3030 
Q 2388 3097 2138 3097 
Q 1578 3097 1268 2742 
Q 959 2388 959 1747 
Q 959 1106 1268 751 
Q 1578 397 2138 397 
Q 2388 397 2633 464 
Q 2878 531 3122 666 
L 3122 134 
Q 2881 22 2623 -34 
Q 2366 -91 2075 -91 
Q 1284 -91 818 406 
Q 353 903 353 1747 
Q 353 2603 823 3093 
Q 1294 3584 2113 3584 
Q 2378 3584 2631 3529 
Q 2884 3475 3122 3366 
z
" id="DejaVuSans-63" transform="scale(0.015625)"/>
      <path d="M 581 4863 
L 1159 4863 
L 1159 1991 
L 2875 3500 
L 3609 3500 
L 1753 1863 
L 3688 0 
L 2938 0 
L 1159 1709 
L 1159 0 
L 581 0 
L 581 4863 
z
" id="DejaVuSans-6b" transform="scale(0.015625)"/>
      <path d="M 750 794 
L 1409 794 
L 1409 256 
L 897 -744 
L 494 -744 
L 750 256 
L 750 794 
z
" id="DejaVuSans-2c" transform="scale(0.015625)"/>
      <path id="DejaVuSans-20" transform="scale(0.015625)"/>
      <path d="M 3513 2113 
L 3513 0 
L 2938 0 
L 2938 2094 
Q 2938 2591 2744 2837 
Q 2550 3084 2163 3084 
Q 1697 3084 1428 2787 
Q 1159 2491 1159 1978 
L 1159 0 
L 581 0 
L 581 4863 
L 1159 4863 
L 1159 2956 
Q 1366 3272 1645 3428 
Q 1925 3584 2291 3584 
Q 2894 3584 3203 3211 
Q 3513 2838 3513 2113 
z
" id="DejaVuSans-68" transform="scale(0.015625)"/>
      <path d="M 1959 3097 
Q 1497 3097 1228 2736 
Q 959 2375 959 1747 
Q 959 1119 1226 758 
Q 1494 397 1959 397 
Q 2419 397 2687 759 
Q 2956 1122 2956 1747 
Q 2956 2369 2687 2733 
Q 2419 3097 1959 3097 
z
M 1959 3584 
Q 2709 3584 3137 3096 
Q 3566 2609 3566 1747 
Q 3566 888 3137 398 
Q 2709 -91 1959 -91 
Q 1206 -91 779 398 
Q 353 888 353 1747 
Q 353 2609 779 3096 
Q 1206 3584 1959 3584 
z
" id="DejaVuSans-6f" transform="scale(0.015625)"/>
      <path d="M 2906 2969 
L 2906 4863 
L 3481 4863 
L 3481 0 
L 2906 0 
L 2906 525 
Q 2725 213 2448 61 
Q 2172 -91 1784 -91 
Q 1150 -91 751 415 
Q 353 922 353 1747 
Q 353 2572 751 3078 
Q 1150 3584 1784 3584 
Q 2172 3584 2448 3432 
Q 2725 3281 2906 2969 
z
M 947 1747 
Q 947 1113 1208 752 
Q 1469 391 1925 391 
Q 2381 391 2643 752 
Q 2906 1113 2906 1747 
Q 2906 2381 2643 2742 
Q 2381 3103 1925 3103 
Q 1469 3103 1208 2742 
Q 947 2381 947 1747 
z
" id="DejaVuSans-64" transform="scale(0.015625)"/>
      <path d="M 2194 1759 
Q 1497 1759 1228 1600 
Q 959 1441 959 1056 
Q 959 750 1161 570 
Q 1363 391 1709 391 
Q 2188 391 2477 730 
Q 2766 1069 2766 1631 
L 2766 1759 
L 2194 1759 
z
M 3341 1997 
L 3341 0 
L 2766 0 
L 2766 531 
Q 2569 213 2275 61 
Q 1981 -91 1556 -91 
Q 1019 -91 701 211 
Q 384 513 384 1019 
Q 384 1609 779 1909 
Q 1175 2209 1959 2209 
L 2766 2209 
L 2766 2266 
Q 2766 2663 2505 2880 
Q 2244 3097 1772 3097 
Q 1472 3097 1187 3025 
Q 903 2953 641 2809 
L 641 3341 
Q 956 3463 1253 3523 
Q 1550 3584 1831 3584 
Q 2591 3584 2966 3190 
Q 3341 2797 3341 1997 
z
" id="DejaVuSans-61" transform="scale(0.015625)"/>
      <path d="M 3513 2113 
L 3513 0 
L 2938 0 
L 2938 2094 
Q 2938 2591 2744 2837 
Q 2550 3084 2163 3084 
Q 1697 3084 1428 2787 
Q 1159 2491 1159 1978 
L 1159 0 
L 581 0 
L 581 3500 
L 1159 3500 
L 1159 2956 
Q 1366 3272 1645 3428 
Q 1925 3584 2291 3584 
Q 2894 3584 3203 3211 
Q 3513 2838 3513 2113 
z
" id="DejaVuSans-6e" transform="scale(0.015625)"/>
      <path d="M 2631 2963 
Q 2534 3019 2420 3045 
Q 2306 3072 2169 3072 
Q 1681 3072 1420 2755 
Q 1159 2438 1159 1844 
L 1159 0 
L 581 0 
L 581 3500 
L 1159 3500 
L 1159 2956 
Q 1341 3275 1631 3429 
Q 1922 3584 2338 3584 
Q 2397 3584 2469 3576 
Q 2541 3569 2628 3553 
L 2631 2963 
z
" id="DejaVuSans-72" transform="scale(0.015625)"/>
      <path d="M 2906 1791 
Q 2906 2416 2648 2759 
Q 2391 3103 1925 3103 
Q 1463 3103 1205 2759 
Q 947 2416 947 1791 
Q 947 1169 1205 825 
Q 1463 481 1925 481 
Q 2391 481 2648 825 
Q 2906 1169 2906 1791 
z
M 3481 434 
Q 3481 -459 3084 -895 
Q 2688 -1331 1869 -1331 
Q 1566 -1331 1297 -1286 
Q 1028 -1241 775 -1147 
L 775 -588 
Q 1028 -725 1275 -790 
Q 1522 -856 1778 -856 
Q 2344 -856 2625 -561 
Q 2906 -266 2906 331 
L 2906 616 
Q 2728 306 2450 153 
Q 2172 0 1784 0 
Q 1141 0 747 490 
Q 353 981 353 1791 
Q 353 2603 747 3093 
Q 1141 3584 1784 3584 
Q 2172 3584 2450 3431 
Q 2728 3278 2906 2969 
L 2906 3500 
L 3481 3500 
L 3481 434 
z
" id="DejaVuSans-67" transform="scale(0.015625)"/>
      <path d="M 269 3500 
L 844 3500 
L 1563 769 
L 2278 3500 
L 2956 3500 
L 3675 769 
L 4391 3500 
L 4966 3500 
L 4050 0 
L 3372 0 
L 2619 2869 
L 1863 0 
L 1184 0 
L 269 3500 
z
" id="DejaVuSans-77" transform="scale(0.015625)"/>
      <path d="M 1172 4494 
L 1172 3500 
L 2356 3500 
L 2356 3053 
L 1172 3053 
L 1172 1153 
Q 1172 725 1289 603 
Q 1406 481 1766 481 
L 2356 481 
L 2356 0 
L 1766 0 
Q 1100 0 847 248 
Q 594 497 594 1153 
L 594 3053 
L 172 3053 
L 172 3500 
L 594 3500 
L 594 4494 
L 1172 4494 
z
" id="DejaVuSans-74" transform="scale(0.015625)"/>
      <path d="M 3597 1894 
L 3597 1613 
L 953 1613 
Q 991 1019 1311 708 
Q 1631 397 2203 397 
Q 2534 397 2845 478 
Q 3156 559 3463 722 
L 3463 178 
Q 3153 47 2828 -22 
Q 2503 -91 2169 -91 
Q 1331 -91 842 396 
Q 353 884 353 1716 
Q 353 2575 817 3079 
Q 1281 3584 2069 3584 
Q 2775 3584 3186 3129 
Q 3597 2675 3597 1894 
z
M 3022 2063 
Q 3016 2534 2758 2815 
Q 2500 3097 2075 3097 
Q 1594 3097 1305 2825 
Q 1016 2553 972 2059 
L 3022 2063 
z
" id="DejaVuSans-65" transform="scale(0.015625)"/>
      <path d="M 3328 2828 
Q 3544 3216 3844 3400 
Q 4144 3584 4550 3584 
Q 5097 3584 5394 3201 
Q 5691 2819 5691 2113 
L 5691 0 
L 5113 0 
L 5113 2094 
Q 5113 2597 4934 2840 
Q 4756 3084 4391 3084 
Q 3944 3084 3684 2787 
Q 3425 2491 3425 1978 
L 3425 0 
L 2847 0 
L 2847 2094 
Q 2847 2600 2669 2842 
Q 2491 3084 2119 3084 
Q 1678 3084 1418 2786 
Q 1159 2488 1159 1978 
L 1159 0 
L 581 0 
L 581 3500 
L 1159 3500 
L 1159 2956 
Q 1356 3278 1631 3431 
Q 1906 3584 2284 3584 
Q 2666 3584 2933 3390 
Q 3200 3197 3328 2828 
z
" id="DejaVuSans-6d" transform="scale(0.015625)"/>
      <path d="M 544 1381 
L 544 3500 
L 1119 3500 
L 1119 1403 
Q 1119 906 1312 657 
Q 1506 409 1894 409 
Q 2359 409 2629 706 
Q 2900 1003 2900 1516 
L 2900 3500 
L 3475 3500 
L 3475 0 
L 2900 0 
L 2900 538 
Q 2691 219 2414 64 
Q 2138 -91 1772 -91 
Q 1169 -91 856 284 
Q 544 659 544 1381 
z
M 1991 3584 
L 1991 3584 
z
" id="DejaVuSans-75" transform="scale(0.015625)"/>
      <path d="M 2834 3397 
L 2834 2853 
Q 2591 2978 2328 3040 
Q 2066 3103 1784 3103 
Q 1356 3103 1142 2972 
Q 928 2841 928 2578 
Q 928 2378 1081 2264 
Q 1234 2150 1697 2047 
L 1894 2003 
Q 2506 1872 2764 1633 
Q 3022 1394 3022 966 
Q 3022 478 2636 193 
Q 2250 -91 1575 -91 
Q 1294 -91 989 -36 
Q 684 19 347 128 
L 347 722 
Q 666 556 975 473 
Q 1284 391 1588 391 
Q 1994 391 2212 530 
Q 2431 669 2431 922 
Q 2431 1156 2273 1281 
Q 2116 1406 1581 1522 
L 1381 1569 
Q 847 1681 609 1914 
Q 372 2147 372 2553 
Q 372 3047 722 3315 
Q 1072 3584 1716 3584 
Q 2034 3584 2315 3537 
Q 2597 3491 2834 3397 
z
" id="DejaVuSans-73" transform="scale(0.015625)"/>
      <path d="M 191 3500 
L 800 3500 
L 1894 563 
L 2988 3500 
L 3597 3500 
L 2284 0 
L 1503 0 
L 191 3500 
z
" id="DejaVuSans-76" transform="scale(0.015625)"/>
      <path d="M 1947 4863 
L 1947 -844 
L 622 -844 
L 622 -397 
L 1369 -397 
L 1369 4416 
L 622 4416 
L 622 4863 
L 1947 4863 
z
" id="DejaVuSans-5d" transform="scale(0.015625)"/>
     </defs>
     <use xlink:href="#DejaVuSans-5b"/>
     <use x="39.013672" xlink:href="#DejaVuSans-43"/>
     <use x="108.837891" xlink:href="#DejaVuSans-6c"/>
     <use x="136.621094" xlink:href="#DejaVuSans-69"/>
     <use x="164.404297" xlink:href="#DejaVuSans-63"/>
     <use x="219.384766" xlink:href="#DejaVuSans-6b"/>
     <use x="277.294922" xlink:href="#DejaVuSans-2c"/>
     <use x="309.082031" xlink:href="#DejaVuSans-20"/>
     <use x="340.869141" xlink:href="#DejaVuSans-68"/>
     <use x="404.248047" xlink:href="#DejaVuSans-6f"/>
     <use x="465.429688" xlink:href="#DejaVuSans-6c"/>
     <use x="493.212891" xlink:href="#DejaVuSans-64"/>
     <use x="556.689453" xlink:href="#DejaVuSans-20"/>
     <use x="588.476562" xlink:href="#DejaVuSans-61"/>
     <use x="649.755859" xlink:href="#DejaVuSans-6e"/>
     <use x="713.134766" xlink:href="#DejaVuSans-64"/>
     <use x="776.611328" xlink:href="#DejaVuSans-20"/>
     <use x="808.398438" xlink:href="#DejaVuSans-64"/>
     <use x="871.875" xlink:href="#DejaVuSans-72"/>
     <use x="912.988281" xlink:href="#DejaVuSans-61"/>
     <use x="974.267578" xlink:href="#DejaVuSans-67"/>
     <use x="1037.744141" xlink:href="#DejaVuSans-20"/>
     <use x="1069.53125" xlink:href="#DejaVuSans-77"/>
     <use x="1151.318359" xlink:href="#DejaVuSans-69"/>
     <use x="1179.101562" xlink:href="#DejaVuSans-74"/>
     <use x="1218.310547" xlink:href="#DejaVuSans-68"/>
     <use x="1281.689453" xlink:href="#DejaVuSans-20"/>
     <use x="1313.476562" xlink:href="#DejaVuSans-74"/>
     <use x="1352.685547" xlink:href="#DejaVuSans-68"/>
     <use x="1416.064453" xlink:href="#DejaVuSans-65"/>
     <use x="1477.587891" xlink:href="#DejaVuSans-20"/>
     <use x="1509.375" xlink:href="#DejaVuSans-6d"/>
     <use x="1606.787109" xlink:href="#DejaVuSans-6f"/>
     <use x="1667.96875" xlink:href="#DejaVuSans-75"/>
     <use x="1731.347656" xlink:href="#DejaVuSans-73"/>
     <use x="1783.447266" xlink:href="#DejaVuSans-65"/>
     <use x="1844.970703" xlink:href="#DejaVuSans-20"/>
     <use x="1876.757812" xlink:href="#DejaVuSans-74"/>
     <use x="1915.966797" xlink:href="#DejaVuSans-6f"/>
     <use x="1977.148438" xlink:href="#DejaVuSans-20"/>
     <use x="2008.935547" xlink:href="#DejaVuSans-72"/>
     <use x="2047.798828" xlink:href="#DejaVuSans-6f"/>
     <use x="2108.980469" xlink:href="#DejaVuSans-74"/>
     <use x="2148.189453" xlink:href="#DejaVuSans-61"/>
     <use x="2209.46875" xlink:href="#DejaVuSans-74"/>
     <use x="2248.677734" xlink:href="#DejaVuSans-65"/>
     <use x="2310.201172" xlink:href="#DejaVuSans-20"/>
     <use x="2341.988281" xlink:href="#DejaVuSans-74"/>
     <use x="2381.197266" xlink:href="#DejaVuSans-68"/>
     <use x="2444.576172" xlink:href="#DejaVuSans-65"/>
     <use x="2506.099609" xlink:href="#DejaVuSans-20"/>
     <use x="2537.886719" xlink:href="#DejaVuSans-76"/>
     <use x="2597.066406" xlink:href="#DejaVuSans-69"/>
     <use x="2624.849609" xlink:href="#DejaVuSans-65"/>
     <use x="2686.373047" xlink:href="#DejaVuSans-77"/>
     <use x="2768.160156" xlink:href="#DejaVuSans-5d"/>
    </g>
   </g>
  </g>
 </g>
 <defs>
  <clipPath id="pf64ce58507">
   <rect height="332.64" width="332.64" x="55.08" y="51.84"/>
  </clipPath>
 </defs>
</svg>
