<?xml version="1.0" encoding="utf-8" standalone="no"?>
<!DOCTYPE svg PUBLIC "-//W3C//DTD SVG 1.1//EN"
  "http://www.w3.org/Graphics/SVG/1.1/DTD/svg11.dtd">
<svg height="216pt" version="1.1" viewBox="0 0 576 216" width="576pt" xmlns="http://www.w3.org/2000/svg" xmlns:xlink="http://www.w3.org/1999/xlink">
 <metadata>
  <rdf:RDF xmlns:cc="http://creativecommons.org/ns#" xmlns:dc="http://purl.org/dc/elements/1.1/" xmlns:rdf="http://www.w3.org/1999/02/22-rdf-syntax-ns#">
   <cc:Work>
    <dc:type rdf:resource="http://purl.org/dc/dcmitype/StillImage"/>
    <dc:date>2022-03-03T12:14:29.759400</dc:date>
    <dc:format>image/svg+xml</dc:format>
    <dc:creator>
     <cc:Agent>
      <dc:title>Matplotlib v3.4.2, https://matplotlib.org/</dc:title>
     </cc:Agent>
    </dc:creator>
   </cc:Work>
  </rdf:RDF>
 </metadata>
 <defs>
  <style type="text/css">*{stroke-linecap:butt;stroke-linejoin:round;}</style>
 </defs>
 <g id="figure_1">
  <g id="patch_1">
   <path d="M 0 216 
L 576 216 
L 576 0 
L 0 0 
z
" style="fill:#ffffff;"/>
  </g>
  <g id="axes_1">
   <g id="patch_2">
    <path d="M 51.05 174.04 
L 565.2 174.04 
L 565.2 25.44 
L 51.05 25.44 
z
" style="fill:#ffffff;"/>
   </g>
   <g id="patch_3">
    <path clip-path="url(#peb7ff3716d)" d="M 74.420455 174.04 
L 80.263068 174.04 
L 80.263068 155.072892 
L 74.420455 155.072892 
z
"/>
   </g>
   <g id="patch_4">
    <path clip-path="url(#peb7ff3716d)" d="M 80.263068 174.04 
L 86.105682 174.04 
L 86.105682 112.761649 
L 80.263068 112.761649 
z
"/>
   </g>
   <g id="patch_5">
    <path clip-path="url(#peb7ff3716d)" d="M 86.105682 174.04 
L 91.948295 174.04 
L 91.948295 90.876524 
L 86.105682 90.876524 
z
"/>
   </g>
   <g id="patch_6">
    <path clip-path="url(#peb7ff3716d)" d="M 91.948295 174.04 
L 97.790909 174.04 
L 97.790909 112.761649 
L 91.948295 112.761649 
z
"/>
   </g>
   <g id="patch_7">
    <path clip-path="url(#peb7ff3716d)" d="M 97.790909 174.04 
L 103.633523 174.04 
L 103.633523 87.958508 
L 97.790909 87.958508 
z
"/>
   </g>
   <g id="patch_8">
    <path clip-path="url(#peb7ff3716d)" d="M 103.633523 174.04 
L 109.476136 174.04 
L 109.476136 80.663466 
L 103.633523 80.663466 
z
"/>
   </g>
   <g id="patch_9">
    <path clip-path="url(#peb7ff3716d)" d="M 109.476136 174.04 
L 115.31875 174.04 
L 115.31875 86.499499 
L 109.476136 86.499499 
z
"/>
   </g>
   <g id="patch_10">
    <path clip-path="url(#peb7ff3716d)" d="M 115.31875 174.04 
L 121.161364 174.04 
L 121.161364 92.335533 
L 115.31875 92.335533 
z
"/>
   </g>
   <g id="patch_11">
    <path clip-path="url(#peb7ff3716d)" d="M 121.161364 174.04 
L 127.003977 174.04 
L 127.003977 108.384624 
L 121.161364 108.384624 
z
"/>
   </g>
   <g id="patch_12">
    <path clip-path="url(#peb7ff3716d)" d="M 127.003977 174.04 
L 132.846591 174.04 
L 132.846591 89.417516 
L 127.003977 89.417516 
z
"/>
   </g>
   <g id="patch_13">
    <path clip-path="url(#peb7ff3716d)" d="M 132.846591 174.04 
L 138.689205 174.04 
L 138.689205 95.253549 
L 132.846591 95.253549 
z
"/>
   </g>
   <g id="patch_14">
    <path clip-path="url(#peb7ff3716d)" d="M 138.689205 174.04 
L 144.531818 174.04 
L 144.531818 32.51619 
L 138.689205 32.51619 
z
"/>
   </g>
   <g id="patch_15">
    <path clip-path="url(#peb7ff3716d)" d="M 144.531818 174.04 
L 150.374432 174.04 
L 150.374432 90.876524 
L 144.531818 90.876524 
z
"/>
   </g>
   <g id="patch_16">
    <path clip-path="url(#peb7ff3716d)" d="M 150.374432 174.04 
L 156.217045 174.04 
L 156.217045 87.958508 
L 150.374432 87.958508 
z
"/>
   </g>
   <g id="patch_17">
    <path clip-path="url(#peb7ff3716d)" d="M 156.217045 174.04 
L 162.059659 174.04 
L 162.059659 104.007599 
L 156.217045 104.007599 
z
"/>
   </g>
   <g id="patch_18">
    <path clip-path="url(#peb7ff3716d)" d="M 162.059659 174.04 
L 167.902273 174.04 
L 167.902273 114.220658 
L 162.059659 114.220658 
z
"/>
   </g>
   <g id="patch_19">
    <path clip-path="url(#peb7ff3716d)" d="M 167.902273 174.04 
L 173.744886 174.04 
L 173.744886 120.056691 
L 167.902273 120.056691 
z
"/>
   </g>
   <g id="patch_20">
    <path clip-path="url(#peb7ff3716d)" d="M 173.744886 174.04 
L 179.5875 174.04 
L 179.5875 121.5157 
L 173.744886 121.5157 
z
"/>
   </g>
   <g id="patch_21">
    <path clip-path="url(#peb7ff3716d)" d="M 179.5875 174.04 
L 185.430114 174.04 
L 185.430114 130.26975 
L 179.5875 130.26975 
z
"/>
   </g>
   <g id="patch_22">
    <path clip-path="url(#peb7ff3716d)" d="M 185.430114 174.04 
L 191.272727 174.04 
L 191.272727 117.138675 
L 185.430114 117.138675 
z
"/>
   </g>
   <g id="patch_23">
    <path clip-path="url(#peb7ff3716d)" d="M 191.272727 174.04 
L 197.115341 174.04 
L 197.115341 86.499499 
L 191.272727 86.499499 
z
"/>
   </g>
   <g id="patch_24">
    <path clip-path="url(#peb7ff3716d)" d="M 197.115341 174.04 
L 202.957955 174.04 
L 202.957955 95.253549 
L 197.115341 95.253549 
z
"/>
   </g>
   <g id="patch_25">
    <path clip-path="url(#peb7ff3716d)" d="M 202.957955 174.04 
L 208.800568 174.04 
L 208.800568 120.056691 
L 202.957955 120.056691 
z
"/>
   </g>
   <g id="patch_26">
    <path clip-path="url(#peb7ff3716d)" d="M 208.800568 174.04 
L 214.643182 174.04 
L 214.643182 108.384624 
L 208.800568 108.384624 
z
"/>
   </g>
   <g id="patch_27">
    <path clip-path="url(#peb7ff3716d)" d="M 214.643182 174.04 
L 220.485795 174.04 
L 220.485795 115.679666 
L 214.643182 115.679666 
z
"/>
   </g>
   <g id="patch_28">
    <path clip-path="url(#peb7ff3716d)" d="M 220.485795 174.04 
L 226.328409 174.04 
L 226.328409 104.007599 
L 220.485795 104.007599 
z
"/>
   </g>
   <g id="patch_29">
    <path clip-path="url(#peb7ff3716d)" d="M 226.328409 174.04 
L 232.171023 174.04 
L 232.171023 101.089583 
L 226.328409 101.089583 
z
"/>
   </g>
   <g id="patch_30">
    <path clip-path="url(#peb7ff3716d)" d="M 232.171023 174.04 
L 238.013636 174.04 
L 238.013636 115.679666 
L 232.171023 115.679666 
z
"/>
   </g>
   <g id="patch_31">
    <path clip-path="url(#peb7ff3716d)" d="M 238.013636 174.04 
L 243.85625 174.04 
L 243.85625 117.138675 
L 238.013636 117.138675 
z
"/>
   </g>
   <g id="patch_32">
    <path clip-path="url(#peb7ff3716d)" d="M 243.85625 174.04 
L 249.698864 174.04 
L 249.698864 106.925616 
L 243.85625 106.925616 
z
"/>
   </g>
   <g id="patch_33">
    <path clip-path="url(#peb7ff3716d)" d="M 249.698864 174.04 
L 255.541477 174.04 
L 255.541477 52.942307 
L 249.698864 52.942307 
z
"/>
   </g>
   <g id="patch_34">
    <path clip-path="url(#peb7ff3716d)" d="M 255.541477 174.04 
L 261.384091 174.04 
L 261.384091 118.597683 
L 255.541477 118.597683 
z
"/>
   </g>
   <g id="patch_35">
    <path clip-path="url(#peb7ff3716d)" d="M 261.384091 174.04 
L 267.226705 174.04 
L 267.226705 137.564791 
L 261.384091 137.564791 
z
"/>
   </g>
   <g id="patch_36">
    <path clip-path="url(#peb7ff3716d)" d="M 267.226705 174.04 
L 273.069318 174.04 
L 273.069318 134.646775 
L 267.226705 134.646775 
z
"/>
   </g>
   <g id="patch_37">
    <path clip-path="url(#peb7ff3716d)" d="M 273.069318 174.04 
L 278.911932 174.04 
L 278.911932 128.810741 
L 273.069318 128.810741 
z
"/>
   </g>
   <g id="patch_38">
    <path clip-path="url(#peb7ff3716d)" d="M 278.911932 174.04 
L 284.754545 174.04 
L 284.754545 147.77785 
L 278.911932 147.77785 
z
"/>
   </g>
   <g id="patch_39">
    <path clip-path="url(#peb7ff3716d)" d="M 284.754545 174.04 
L 290.597159 174.04 
L 290.597159 130.26975 
L 284.754545 130.26975 
z
"/>
   </g>
   <g id="patch_40">
    <path clip-path="url(#peb7ff3716d)" d="M 290.597159 174.04 
L 296.439773 174.04 
L 296.439773 153.613883 
L 290.597159 153.613883 
z
"/>
   </g>
   <g id="patch_41">
    <path clip-path="url(#peb7ff3716d)" d="M 296.439773 174.04 
L 302.282386 174.04 
L 302.282386 160.908925 
L 296.439773 160.908925 
z
"/>
   </g>
   <g id="patch_42">
    <path clip-path="url(#peb7ff3716d)" d="M 302.282386 174.04 
L 308.125 174.04 
L 308.125 162.367933 
L 302.282386 162.367933 
z
"/>
   </g>
   <g id="patch_43">
    <path clip-path="url(#peb7ff3716d)" d="M 308.125 174.04 
L 313.967614 174.04 
L 313.967614 155.072892 
L 308.125 155.072892 
z
"/>
   </g>
   <g id="patch_44">
    <path clip-path="url(#peb7ff3716d)" d="M 313.967614 174.04 
L 319.810227 174.04 
L 319.810227 144.859833 
L 313.967614 144.859833 
z
"/>
   </g>
   <g id="patch_45">
    <path clip-path="url(#peb7ff3716d)" d="M 319.810227 174.04 
L 325.652841 174.04 
L 325.652841 159.449917 
L 319.810227 159.449917 
z
"/>
   </g>
   <g id="patch_46">
    <path clip-path="url(#peb7ff3716d)" d="M 325.652841 174.04 
L 331.495455 174.04 
L 331.495455 133.187766 
L 325.652841 133.187766 
z
"/>
   </g>
   <g id="patch_47">
    <path clip-path="url(#peb7ff3716d)" d="M 331.495455 174.04 
L 337.338068 174.04 
L 337.338068 165.28595 
L 331.495455 165.28595 
z
"/>
   </g>
   <g id="patch_48">
    <path clip-path="url(#peb7ff3716d)" d="M 337.338068 174.04 
L 343.180682 174.04 
L 343.180682 160.908925 
L 337.338068 160.908925 
z
"/>
   </g>
   <g id="patch_49">
    <path clip-path="url(#peb7ff3716d)" d="M 343.180682 174.04 
L 349.023295 174.04 
L 349.023295 160.908925 
L 343.180682 160.908925 
z
"/>
   </g>
   <g id="patch_50">
    <path clip-path="url(#peb7ff3716d)" d="M 349.023295 174.04 
L 354.865909 174.04 
L 354.865909 160.908925 
L 349.023295 160.908925 
z
"/>
   </g>
   <g id="patch_51">
    <path clip-path="url(#peb7ff3716d)" d="M 354.865909 174.04 
L 360.708523 174.04 
L 360.708523 156.5319 
L 354.865909 156.5319 
z
"/>
   </g>
   <g id="patch_52">
    <path clip-path="url(#peb7ff3716d)" d="M 360.708523 174.04 
L 366.551136 174.04 
L 366.551136 157.990908 
L 360.708523 157.990908 
z
"/>
   </g>
   <g id="patch_53">
    <path clip-path="url(#peb7ff3716d)" d="M 366.551136 174.04 
L 372.39375 174.04 
L 372.39375 168.203967 
L 366.551136 168.203967 
z
"/>
   </g>
   <g id="patch_54">
    <path clip-path="url(#peb7ff3716d)" d="M 372.39375 174.04 
L 378.236364 174.04 
L 378.236364 169.662975 
L 372.39375 169.662975 
z
"/>
   </g>
   <g id="patch_55">
    <path clip-path="url(#peb7ff3716d)" d="M 378.236364 174.04 
L 384.078977 174.04 
L 384.078977 168.203967 
L 378.236364 168.203967 
z
"/>
   </g>
   <g id="patch_56">
    <path clip-path="url(#peb7ff3716d)" d="M 384.078977 174.04 
L 389.921591 174.04 
L 389.921591 168.203967 
L 384.078977 168.203967 
z
"/>
   </g>
   <g id="patch_57">
    <path clip-path="url(#peb7ff3716d)" d="M 389.921591 174.04 
L 395.764205 174.04 
L 395.764205 172.580992 
L 389.921591 172.580992 
z
"/>
   </g>
   <g id="patch_58">
    <path clip-path="url(#peb7ff3716d)" d="M 395.764205 174.04 
L 401.606818 174.04 
L 401.606818 171.121983 
L 395.764205 171.121983 
z
"/>
   </g>
   <g id="patch_59">
    <path clip-path="url(#peb7ff3716d)" d="M 401.606818 174.04 
L 407.449432 174.04 
L 407.449432 165.28595 
L 401.606818 165.28595 
z
"/>
   </g>
   <g id="patch_60">
    <path clip-path="url(#peb7ff3716d)" d="M 407.449432 174.04 
L 413.292045 174.04 
L 413.292045 172.580992 
L 407.449432 172.580992 
z
"/>
   </g>
   <g id="patch_61">
    <path clip-path="url(#peb7ff3716d)" d="M 413.292045 174.04 
L 419.134659 174.04 
L 419.134659 165.28595 
L 413.292045 165.28595 
z
"/>
   </g>
   <g id="patch_62">
    <path clip-path="url(#peb7ff3716d)" d="M 419.134659 174.04 
L 424.977273 174.04 
L 424.977273 172.580992 
L 419.134659 172.580992 
z
"/>
   </g>
   <g id="patch_63">
    <path clip-path="url(#peb7ff3716d)" d="M 424.977273 174.04 
L 430.819886 174.04 
L 430.819886 171.121983 
L 424.977273 171.121983 
z
"/>
   </g>
   <g id="patch_64">
    <path clip-path="url(#peb7ff3716d)" d="M 430.819886 174.04 
L 436.6625 174.04 
L 436.6625 166.744958 
L 430.819886 166.744958 
z
"/>
   </g>
   <g id="patch_65">
    <path clip-path="url(#peb7ff3716d)" d="M 436.6625 174.04 
L 442.505114 174.04 
L 442.505114 171.121983 
L 436.6625 171.121983 
z
"/>
   </g>
   <g id="patch_66">
    <path clip-path="url(#peb7ff3716d)" d="M 442.505114 174.04 
L 448.347727 174.04 
L 448.347727 172.580992 
L 442.505114 172.580992 
z
"/>
   </g>
   <g id="patch_67">
    <path clip-path="url(#peb7ff3716d)" d="M 448.347727 174.04 
L 454.190341 174.04 
L 454.190341 174.04 
L 448.347727 174.04 
z
"/>
   </g>
   <g id="patch_68">
    <path clip-path="url(#peb7ff3716d)" d="M 454.190341 174.04 
L 460.032955 174.04 
L 460.032955 166.744958 
L 454.190341 166.744958 
z
"/>
   </g>
   <g id="patch_69">
    <path clip-path="url(#peb7ff3716d)" d="M 460.032955 174.04 
L 465.875568 174.04 
L 465.875568 169.662975 
L 460.032955 169.662975 
z
"/>
   </g>
   <g id="patch_70">
    <path clip-path="url(#peb7ff3716d)" d="M 465.875568 174.04 
L 471.718182 174.04 
L 471.718182 172.580992 
L 465.875568 172.580992 
z
"/>
   </g>
   <g id="patch_71">
    <path clip-path="url(#peb7ff3716d)" d="M 471.718182 174.04 
L 477.560795 174.04 
L 477.560795 169.662975 
L 471.718182 169.662975 
z
"/>
   </g>
   <g id="patch_72">
    <path clip-path="url(#peb7ff3716d)" d="M 477.560795 174.04 
L 483.403409 174.04 
L 483.403409 169.662975 
L 477.560795 169.662975 
z
"/>
   </g>
   <g id="patch_73">
    <path clip-path="url(#peb7ff3716d)" d="M 483.403409 174.04 
L 489.246023 174.04 
L 489.246023 171.121983 
L 483.403409 171.121983 
z
"/>
   </g>
   <g id="patch_74">
    <path clip-path="url(#peb7ff3716d)" d="M 489.246023 174.04 
L 495.088636 174.04 
L 495.088636 174.04 
L 489.246023 174.04 
z
"/>
   </g>
   <g id="patch_75">
    <path clip-path="url(#peb7ff3716d)" d="M 495.088636 174.04 
L 500.93125 174.04 
L 500.93125 174.04 
L 495.088636 174.04 
z
"/>
   </g>
   <g id="patch_76">
    <path clip-path="url(#peb7ff3716d)" d="M 500.93125 174.04 
L 506.773864 174.04 
L 506.773864 172.580992 
L 500.93125 172.580992 
z
"/>
   </g>
   <g id="patch_77">
    <path clip-path="url(#peb7ff3716d)" d="M 506.773864 174.04 
L 512.616477 174.04 
L 512.616477 174.04 
L 506.773864 174.04 
z
"/>
   </g>
   <g id="patch_78">
    <path clip-path="url(#peb7ff3716d)" d="M 512.616477 174.04 
L 518.459091 174.04 
L 518.459091 171.121983 
L 512.616477 171.121983 
z
"/>
   </g>
   <g id="patch_79">
    <path clip-path="url(#peb7ff3716d)" d="M 518.459091 174.04 
L 524.301705 174.04 
L 524.301705 174.04 
L 518.459091 174.04 
z
"/>
   </g>
   <g id="patch_80">
    <path clip-path="url(#peb7ff3716d)" d="M 524.301705 174.04 
L 530.144318 174.04 
L 530.144318 174.04 
L 524.301705 174.04 
z
"/>
   </g>
   <g id="patch_81">
    <path clip-path="url(#peb7ff3716d)" d="M 530.144318 174.04 
L 535.986932 174.04 
L 535.986932 172.580992 
L 530.144318 172.580992 
z
"/>
   </g>
   <g id="patch_82">
    <path clip-path="url(#peb7ff3716d)" d="M 535.986932 174.04 
L 541.829545 174.04 
L 541.829545 169.662975 
L 535.986932 169.662975 
z
"/>
   </g>
   <g id="matplotlib.axis_1">
    <g id="xtick_1">
     <g id="line2d_1">
      <defs>
       <path d="M 0 0 
L 0 3.5 
" id="m2d53979a95" style="stroke:#000000;stroke-width:0.8;"/>
      </defs>
      <g>
       <use style="stroke:#000000;stroke-width:0.8;" x="73.164725" xlink:href="#m2d53979a95" y="174.04"/>
      </g>
     </g>
     <g id="text_1">
      <!-- 0 -->
      <g transform="translate(69.983475 188.638438)scale(0.1 -0.1)">
       <defs>
        <path d="M 2034 4250 
Q 1547 4250 1301 3770 
Q 1056 3291 1056 2328 
Q 1056 1369 1301 889 
Q 1547 409 2034 409 
Q 2525 409 2770 889 
Q 3016 1369 3016 2328 
Q 3016 3291 2770 3770 
Q 2525 4250 2034 4250 
z
M 2034 4750 
Q 2819 4750 3233 4129 
Q 3647 3509 3647 2328 
Q 3647 1150 3233 529 
Q 2819 -91 2034 -91 
Q 1250 -91 836 529 
Q 422 1150 422 2328 
Q 422 3509 836 4129 
Q 1250 4750 2034 4750 
z
" id="DejaVuSans-30" transform="scale(0.015625)"/>
       </defs>
       <use xlink:href="#DejaVuSans-30"/>
      </g>
     </g>
    </g>
    <g id="xtick_2">
     <g id="line2d_2">
      <g>
       <use style="stroke:#000000;stroke-width:0.8;" x="175.89724" xlink:href="#m2d53979a95" y="174.04"/>
      </g>
     </g>
     <g id="text_2">
      <!-- 20 -->
      <g transform="translate(169.53474 188.638438)scale(0.1 -0.1)">
       <defs>
        <path d="M 1228 531 
L 3431 531 
L 3431 0 
L 469 0 
L 469 531 
Q 828 903 1448 1529 
Q 2069 2156 2228 2338 
Q 2531 2678 2651 2914 
Q 2772 3150 2772 3378 
Q 2772 3750 2511 3984 
Q 2250 4219 1831 4219 
Q 1534 4219 1204 4116 
Q 875 4013 500 3803 
L 500 4441 
Q 881 4594 1212 4672 
Q 1544 4750 1819 4750 
Q 2544 4750 2975 4387 
Q 3406 4025 3406 3419 
Q 3406 3131 3298 2873 
Q 3191 2616 2906 2266 
Q 2828 2175 2409 1742 
Q 1991 1309 1228 531 
z
" id="DejaVuSans-32" transform="scale(0.015625)"/>
       </defs>
       <use xlink:href="#DejaVuSans-32"/>
       <use x="63.623047" xlink:href="#DejaVuSans-30"/>
      </g>
     </g>
    </g>
    <g id="xtick_3">
     <g id="line2d_3">
      <g>
       <use style="stroke:#000000;stroke-width:0.8;" x="278.629754" xlink:href="#m2d53979a95" y="174.04"/>
      </g>
     </g>
     <g id="text_3">
      <!-- 40 -->
      <g transform="translate(272.267254 188.638438)scale(0.1 -0.1)">
       <defs>
        <path d="M 2419 4116 
L 825 1625 
L 2419 1625 
L 2419 4116 
z
M 2253 4666 
L 3047 4666 
L 3047 1625 
L 3713 1625 
L 3713 1100 
L 3047 1100 
L 3047 0 
L 2419 0 
L 2419 1100 
L 313 1100 
L 313 1709 
L 2253 4666 
z
" id="DejaVuSans-34" transform="scale(0.015625)"/>
       </defs>
       <use xlink:href="#DejaVuSans-34"/>
       <use x="63.623047" xlink:href="#DejaVuSans-30"/>
      </g>
     </g>
    </g>
    <g id="xtick_4">
     <g id="line2d_4">
      <g>
       <use style="stroke:#000000;stroke-width:0.8;" x="381.362268" xlink:href="#m2d53979a95" y="174.04"/>
      </g>
     </g>
     <g id="text_4">
      <!-- 60 -->
      <g transform="translate(374.999768 188.638438)scale(0.1 -0.1)">
       <defs>
        <path d="M 2113 2584 
Q 1688 2584 1439 2293 
Q 1191 2003 1191 1497 
Q 1191 994 1439 701 
Q 1688 409 2113 409 
Q 2538 409 2786 701 
Q 3034 994 3034 1497 
Q 3034 2003 2786 2293 
Q 2538 2584 2113 2584 
z
M 3366 4563 
L 3366 3988 
Q 3128 4100 2886 4159 
Q 2644 4219 2406 4219 
Q 1781 4219 1451 3797 
Q 1122 3375 1075 2522 
Q 1259 2794 1537 2939 
Q 1816 3084 2150 3084 
Q 2853 3084 3261 2657 
Q 3669 2231 3669 1497 
Q 3669 778 3244 343 
Q 2819 -91 2113 -91 
Q 1303 -91 875 529 
Q 447 1150 447 2328 
Q 447 3434 972 4092 
Q 1497 4750 2381 4750 
Q 2619 4750 2861 4703 
Q 3103 4656 3366 4563 
z
" id="DejaVuSans-36" transform="scale(0.015625)"/>
       </defs>
       <use xlink:href="#DejaVuSans-36"/>
       <use x="63.623047" xlink:href="#DejaVuSans-30"/>
      </g>
     </g>
    </g>
    <g id="xtick_5">
     <g id="line2d_5">
      <g>
       <use style="stroke:#000000;stroke-width:0.8;" x="484.094783" xlink:href="#m2d53979a95" y="174.04"/>
      </g>
     </g>
     <g id="text_5">
      <!-- 80 -->
      <g transform="translate(477.732283 188.638438)scale(0.1 -0.1)">
       <defs>
        <path d="M 2034 2216 
Q 1584 2216 1326 1975 
Q 1069 1734 1069 1313 
Q 1069 891 1326 650 
Q 1584 409 2034 409 
Q 2484 409 2743 651 
Q 3003 894 3003 1313 
Q 3003 1734 2745 1975 
Q 2488 2216 2034 2216 
z
M 1403 2484 
Q 997 2584 770 2862 
Q 544 3141 544 3541 
Q 544 4100 942 4425 
Q 1341 4750 2034 4750 
Q 2731 4750 3128 4425 
Q 3525 4100 3525 3541 
Q 3525 3141 3298 2862 
Q 3072 2584 2669 2484 
Q 3125 2378 3379 2068 
Q 3634 1759 3634 1313 
Q 3634 634 3220 271 
Q 2806 -91 2034 -91 
Q 1263 -91 848 271 
Q 434 634 434 1313 
Q 434 1759 690 2068 
Q 947 2378 1403 2484 
z
M 1172 3481 
Q 1172 3119 1398 2916 
Q 1625 2713 2034 2713 
Q 2441 2713 2670 2916 
Q 2900 3119 2900 3481 
Q 2900 3844 2670 4047 
Q 2441 4250 2034 4250 
Q 1625 4250 1398 4047 
Q 1172 3844 1172 3481 
z
" id="DejaVuSans-38" transform="scale(0.015625)"/>
       </defs>
       <use xlink:href="#DejaVuSans-38"/>
       <use x="63.623047" xlink:href="#DejaVuSans-30"/>
      </g>
     </g>
    </g>
    <g id="text_6">
     <!-- Reprojection error (pixels) -->
     <g transform="translate(243.211719 202.316563)scale(0.1 -0.1)">
      <defs>
       <path d="M 2841 2188 
Q 3044 2119 3236 1894 
Q 3428 1669 3622 1275 
L 4263 0 
L 3584 0 
L 2988 1197 
Q 2756 1666 2539 1819 
Q 2322 1972 1947 1972 
L 1259 1972 
L 1259 0 
L 628 0 
L 628 4666 
L 2053 4666 
Q 2853 4666 3247 4331 
Q 3641 3997 3641 3322 
Q 3641 2881 3436 2590 
Q 3231 2300 2841 2188 
z
M 1259 4147 
L 1259 2491 
L 2053 2491 
Q 2509 2491 2742 2702 
Q 2975 2913 2975 3322 
Q 2975 3731 2742 3939 
Q 2509 4147 2053 4147 
L 1259 4147 
z
" id="DejaVuSans-52" transform="scale(0.015625)"/>
       <path d="M 3597 1894 
L 3597 1613 
L 953 1613 
Q 991 1019 1311 708 
Q 1631 397 2203 397 
Q 2534 397 2845 478 
Q 3156 559 3463 722 
L 3463 178 
Q 3153 47 2828 -22 
Q 2503 -91 2169 -91 
Q 1331 -91 842 396 
Q 353 884 353 1716 
Q 353 2575 817 3079 
Q 1281 3584 2069 3584 
Q 2775 3584 3186 3129 
Q 3597 2675 3597 1894 
z
M 3022 2063 
Q 3016 2534 2758 2815 
Q 2500 3097 2075 3097 
Q 1594 3097 1305 2825 
Q 1016 2553 972 2059 
L 3022 2063 
z
" id="DejaVuSans-65" transform="scale(0.015625)"/>
       <path d="M 1159 525 
L 1159 -1331 
L 581 -1331 
L 581 3500 
L 1159 3500 
L 1159 2969 
Q 1341 3281 1617 3432 
Q 1894 3584 2278 3584 
Q 2916 3584 3314 3078 
Q 3713 2572 3713 1747 
Q 3713 922 3314 415 
Q 2916 -91 2278 -91 
Q 1894 -91 1617 61 
Q 1341 213 1159 525 
z
M 3116 1747 
Q 3116 2381 2855 2742 
Q 2594 3103 2138 3103 
Q 1681 3103 1420 2742 
Q 1159 2381 1159 1747 
Q 1159 1113 1420 752 
Q 1681 391 2138 391 
Q 2594 391 2855 752 
Q 3116 1113 3116 1747 
z
" id="DejaVuSans-70" transform="scale(0.015625)"/>
       <path d="M 2631 2963 
Q 2534 3019 2420 3045 
Q 2306 3072 2169 3072 
Q 1681 3072 1420 2755 
Q 1159 2438 1159 1844 
L 1159 0 
L 581 0 
L 581 3500 
L 1159 3500 
L 1159 2956 
Q 1341 3275 1631 3429 
Q 1922 3584 2338 3584 
Q 2397 3584 2469 3576 
Q 2541 3569 2628 3553 
L 2631 2963 
z
" id="DejaVuSans-72" transform="scale(0.015625)"/>
       <path d="M 1959 3097 
Q 1497 3097 1228 2736 
Q 959 2375 959 1747 
Q 959 1119 1226 758 
Q 1494 397 1959 397 
Q 2419 397 2687 759 
Q 2956 1122 2956 1747 
Q 2956 2369 2687 2733 
Q 2419 3097 1959 3097 
z
M 1959 3584 
Q 2709 3584 3137 3096 
Q 3566 2609 3566 1747 
Q 3566 888 3137 398 
Q 2709 -91 1959 -91 
Q 1206 -91 779 398 
Q 353 888 353 1747 
Q 353 2609 779 3096 
Q 1206 3584 1959 3584 
z
" id="DejaVuSans-6f" transform="scale(0.015625)"/>
       <path d="M 603 3500 
L 1178 3500 
L 1178 -63 
Q 1178 -731 923 -1031 
Q 669 -1331 103 -1331 
L -116 -1331 
L -116 -844 
L 38 -844 
Q 366 -844 484 -692 
Q 603 -541 603 -63 
L 603 3500 
z
M 603 4863 
L 1178 4863 
L 1178 4134 
L 603 4134 
L 603 4863 
z
" id="DejaVuSans-6a" transform="scale(0.015625)"/>
       <path d="M 3122 3366 
L 3122 2828 
Q 2878 2963 2633 3030 
Q 2388 3097 2138 3097 
Q 1578 3097 1268 2742 
Q 959 2388 959 1747 
Q 959 1106 1268 751 
Q 1578 397 2138 397 
Q 2388 397 2633 464 
Q 2878 531 3122 666 
L 3122 134 
Q 2881 22 2623 -34 
Q 2366 -91 2075 -91 
Q 1284 -91 818 406 
Q 353 903 353 1747 
Q 353 2603 823 3093 
Q 1294 3584 2113 3584 
Q 2378 3584 2631 3529 
Q 2884 3475 3122 3366 
z
" id="DejaVuSans-63" transform="scale(0.015625)"/>
       <path d="M 1172 4494 
L 1172 3500 
L 2356 3500 
L 2356 3053 
L 1172 3053 
L 1172 1153 
Q 1172 725 1289 603 
Q 1406 481 1766 481 
L 2356 481 
L 2356 0 
L 1766 0 
Q 1100 0 847 248 
Q 594 497 594 1153 
L 594 3053 
L 172 3053 
L 172 3500 
L 594 3500 
L 594 4494 
L 1172 4494 
z
" id="DejaVuSans-74" transform="scale(0.015625)"/>
       <path d="M 603 3500 
L 1178 3500 
L 1178 0 
L 603 0 
L 603 3500 
z
M 603 4863 
L 1178 4863 
L 1178 4134 
L 603 4134 
L 603 4863 
z
" id="DejaVuSans-69" transform="scale(0.015625)"/>
       <path d="M 3513 2113 
L 3513 0 
L 2938 0 
L 2938 2094 
Q 2938 2591 2744 2837 
Q 2550 3084 2163 3084 
Q 1697 3084 1428 2787 
Q 1159 2491 1159 1978 
L 1159 0 
L 581 0 
L 581 3500 
L 1159 3500 
L 1159 2956 
Q 1366 3272 1645 3428 
Q 1925 3584 2291 3584 
Q 2894 3584 3203 3211 
Q 3513 2838 3513 2113 
z
" id="DejaVuSans-6e" transform="scale(0.015625)"/>
       <path id="DejaVuSans-20" transform="scale(0.015625)"/>
       <path d="M 1984 4856 
Q 1566 4138 1362 3434 
Q 1159 2731 1159 2009 
Q 1159 1288 1364 580 
Q 1569 -128 1984 -844 
L 1484 -844 
Q 1016 -109 783 600 
Q 550 1309 550 2009 
Q 550 2706 781 3412 
Q 1013 4119 1484 4856 
L 1984 4856 
z
" id="DejaVuSans-28" transform="scale(0.015625)"/>
       <path d="M 3513 3500 
L 2247 1797 
L 3578 0 
L 2900 0 
L 1881 1375 
L 863 0 
L 184 0 
L 1544 1831 
L 300 3500 
L 978 3500 
L 1906 2253 
L 2834 3500 
L 3513 3500 
z
" id="DejaVuSans-78" transform="scale(0.015625)"/>
       <path d="M 603 4863 
L 1178 4863 
L 1178 0 
L 603 0 
L 603 4863 
z
" id="DejaVuSans-6c" transform="scale(0.015625)"/>
       <path d="M 2834 3397 
L 2834 2853 
Q 2591 2978 2328 3040 
Q 2066 3103 1784 3103 
Q 1356 3103 1142 2972 
Q 928 2841 928 2578 
Q 928 2378 1081 2264 
Q 1234 2150 1697 2047 
L 1894 2003 
Q 2506 1872 2764 1633 
Q 3022 1394 3022 966 
Q 3022 478 2636 193 
Q 2250 -91 1575 -91 
Q 1294 -91 989 -36 
Q 684 19 347 128 
L 347 722 
Q 666 556 975 473 
Q 1284 391 1588 391 
Q 1994 391 2212 530 
Q 2431 669 2431 922 
Q 2431 1156 2273 1281 
Q 2116 1406 1581 1522 
L 1381 1569 
Q 847 1681 609 1914 
Q 372 2147 372 2553 
Q 372 3047 722 3315 
Q 1072 3584 1716 3584 
Q 2034 3584 2315 3537 
Q 2597 3491 2834 3397 
z
" id="DejaVuSans-73" transform="scale(0.015625)"/>
       <path d="M 513 4856 
L 1013 4856 
Q 1481 4119 1714 3412 
Q 1947 2706 1947 2009 
Q 1947 1309 1714 600 
Q 1481 -109 1013 -844 
L 513 -844 
Q 928 -128 1133 580 
Q 1338 1288 1338 2009 
Q 1338 2731 1133 3434 
Q 928 4138 513 4856 
z
" id="DejaVuSans-29" transform="scale(0.015625)"/>
      </defs>
      <use xlink:href="#DejaVuSans-52"/>
      <use x="64.982422" xlink:href="#DejaVuSans-65"/>
      <use x="126.505859" xlink:href="#DejaVuSans-70"/>
      <use x="189.982422" xlink:href="#DejaVuSans-72"/>
      <use x="228.845703" xlink:href="#DejaVuSans-6f"/>
      <use x="290.027344" xlink:href="#DejaVuSans-6a"/>
      <use x="317.810547" xlink:href="#DejaVuSans-65"/>
      <use x="379.333984" xlink:href="#DejaVuSans-63"/>
      <use x="434.314453" xlink:href="#DejaVuSans-74"/>
      <use x="473.523438" xlink:href="#DejaVuSans-69"/>
      <use x="501.306641" xlink:href="#DejaVuSans-6f"/>
      <use x="562.488281" xlink:href="#DejaVuSans-6e"/>
      <use x="625.867188" xlink:href="#DejaVuSans-20"/>
      <use x="657.654297" xlink:href="#DejaVuSans-65"/>
      <use x="719.177734" xlink:href="#DejaVuSans-72"/>
      <use x="758.541016" xlink:href="#DejaVuSans-72"/>
      <use x="797.404297" xlink:href="#DejaVuSans-6f"/>
      <use x="858.585938" xlink:href="#DejaVuSans-72"/>
      <use x="899.699219" xlink:href="#DejaVuSans-20"/>
      <use x="931.486328" xlink:href="#DejaVuSans-28"/>
      <use x="970.5" xlink:href="#DejaVuSans-70"/>
      <use x="1033.976562" xlink:href="#DejaVuSans-69"/>
      <use x="1061.759766" xlink:href="#DejaVuSans-78"/>
      <use x="1117.814453" xlink:href="#DejaVuSans-65"/>
      <use x="1179.337891" xlink:href="#DejaVuSans-6c"/>
      <use x="1207.121094" xlink:href="#DejaVuSans-73"/>
      <use x="1259.220703" xlink:href="#DejaVuSans-29"/>
     </g>
    </g>
   </g>
   <g id="matplotlib.axis_2">
    <g id="ytick_1">
     <g id="line2d_6">
      <defs>
       <path d="M 0 0 
L -3.5 0 
" id="mada899cd73" style="stroke:#000000;stroke-width:0.8;"/>
      </defs>
      <g>
       <use style="stroke:#000000;stroke-width:0.8;" x="51.05" xlink:href="#mada899cd73" y="174.04"/>
      </g>
     </g>
     <g id="text_7">
      <!-- 0 -->
      <g transform="translate(37.6875 177.839219)scale(0.1 -0.1)">
       <use xlink:href="#DejaVuSans-30"/>
      </g>
     </g>
    </g>
    <g id="ytick_2">
     <g id="line2d_7">
      <g>
       <use style="stroke:#000000;stroke-width:0.8;" x="51.05" xlink:href="#mada899cd73" y="144.859833"/>
      </g>
     </g>
     <g id="text_8">
      <!-- 20 -->
      <g transform="translate(31.325 148.659052)scale(0.1 -0.1)">
       <use xlink:href="#DejaVuSans-32"/>
       <use x="63.623047" xlink:href="#DejaVuSans-30"/>
      </g>
     </g>
    </g>
    <g id="ytick_3">
     <g id="line2d_8">
      <g>
       <use style="stroke:#000000;stroke-width:0.8;" x="51.05" xlink:href="#mada899cd73" y="115.679666"/>
      </g>
     </g>
     <g id="text_9">
      <!-- 40 -->
      <g transform="translate(31.325 119.478885)scale(0.1 -0.1)">
       <use xlink:href="#DejaVuSans-34"/>
       <use x="63.623047" xlink:href="#DejaVuSans-30"/>
      </g>
     </g>
    </g>
    <g id="ytick_4">
     <g id="line2d_9">
      <g>
       <use style="stroke:#000000;stroke-width:0.8;" x="51.05" xlink:href="#mada899cd73" y="86.499499"/>
      </g>
     </g>
     <g id="text_10">
      <!-- 60 -->
      <g transform="translate(31.325 90.298718)scale(0.1 -0.1)">
       <use xlink:href="#DejaVuSans-36"/>
       <use x="63.623047" xlink:href="#DejaVuSans-30"/>
      </g>
     </g>
    </g>
    <g id="ytick_5">
     <g id="line2d_10">
      <g>
       <use style="stroke:#000000;stroke-width:0.8;" x="51.05" xlink:href="#mada899cd73" y="57.319332"/>
      </g>
     </g>
     <g id="text_11">
      <!-- 80 -->
      <g transform="translate(31.325 61.118551)scale(0.1 -0.1)">
       <use xlink:href="#DejaVuSans-38"/>
       <use x="63.623047" xlink:href="#DejaVuSans-30"/>
      </g>
     </g>
    </g>
    <g id="ytick_6">
     <g id="line2d_11">
      <g>
       <use style="stroke:#000000;stroke-width:0.8;" x="51.05" xlink:href="#mada899cd73" y="28.139165"/>
      </g>
     </g>
     <g id="text_12">
      <!-- 100 -->
      <g transform="translate(24.9625 31.938384)scale(0.1 -0.1)">
       <defs>
        <path d="M 794 531 
L 1825 531 
L 1825 4091 
L 703 3866 
L 703 4441 
L 1819 4666 
L 2450 4666 
L 2450 531 
L 3481 531 
L 3481 0 
L 794 0 
L 794 531 
z
" id="DejaVuSans-31" transform="scale(0.015625)"/>
       </defs>
       <use xlink:href="#DejaVuSans-31"/>
       <use x="63.623047" xlink:href="#DejaVuSans-30"/>
       <use x="127.246094" xlink:href="#DejaVuSans-30"/>
      </g>
     </g>
    </g>
    <g id="text_13">
     <!-- Frequency -->
     <g transform="translate(18.882813 125.569688)rotate(-90)scale(0.1 -0.1)">
      <defs>
       <path d="M 628 4666 
L 3309 4666 
L 3309 4134 
L 1259 4134 
L 1259 2759 
L 3109 2759 
L 3109 2228 
L 1259 2228 
L 1259 0 
L 628 0 
L 628 4666 
z
" id="DejaVuSans-46" transform="scale(0.015625)"/>
       <path d="M 947 1747 
Q 947 1113 1208 752 
Q 1469 391 1925 391 
Q 2381 391 2643 752 
Q 2906 1113 2906 1747 
Q 2906 2381 2643 2742 
Q 2381 3103 1925 3103 
Q 1469 3103 1208 2742 
Q 947 2381 947 1747 
z
M 2906 525 
Q 2725 213 2448 61 
Q 2172 -91 1784 -91 
Q 1150 -91 751 415 
Q 353 922 353 1747 
Q 353 2572 751 3078 
Q 1150 3584 1784 3584 
Q 2172 3584 2448 3432 
Q 2725 3281 2906 2969 
L 2906 3500 
L 3481 3500 
L 3481 -1331 
L 2906 -1331 
L 2906 525 
z
" id="DejaVuSans-71" transform="scale(0.015625)"/>
       <path d="M 544 1381 
L 544 3500 
L 1119 3500 
L 1119 1403 
Q 1119 906 1312 657 
Q 1506 409 1894 409 
Q 2359 409 2629 706 
Q 2900 1003 2900 1516 
L 2900 3500 
L 3475 3500 
L 3475 0 
L 2900 0 
L 2900 538 
Q 2691 219 2414 64 
Q 2138 -91 1772 -91 
Q 1169 -91 856 284 
Q 544 659 544 1381 
z
M 1991 3584 
L 1991 3584 
z
" id="DejaVuSans-75" transform="scale(0.015625)"/>
       <path d="M 2059 -325 
Q 1816 -950 1584 -1140 
Q 1353 -1331 966 -1331 
L 506 -1331 
L 506 -850 
L 844 -850 
Q 1081 -850 1212 -737 
Q 1344 -625 1503 -206 
L 1606 56 
L 191 3500 
L 800 3500 
L 1894 763 
L 2988 3500 
L 3597 3500 
L 2059 -325 
z
" id="DejaVuSans-79" transform="scale(0.015625)"/>
      </defs>
      <use xlink:href="#DejaVuSans-46"/>
      <use x="50.269531" xlink:href="#DejaVuSans-72"/>
      <use x="89.132812" xlink:href="#DejaVuSans-65"/>
      <use x="150.65625" xlink:href="#DejaVuSans-71"/>
      <use x="214.132812" xlink:href="#DejaVuSans-75"/>
      <use x="277.511719" xlink:href="#DejaVuSans-65"/>
      <use x="339.035156" xlink:href="#DejaVuSans-6e"/>
      <use x="402.414062" xlink:href="#DejaVuSans-63"/>
      <use x="457.394531" xlink:href="#DejaVuSans-79"/>
     </g>
    </g>
   </g>
   <g id="patch_83">
    <path d="M 51.05 174.04 
L 51.05 25.44 
" style="fill:none;stroke:#000000;stroke-linecap:square;stroke-linejoin:miter;stroke-width:0.8;"/>
   </g>
   <g id="patch_84">
    <path d="M 565.2 174.04 
L 565.2 25.44 
" style="fill:none;stroke:#000000;stroke-linecap:square;stroke-linejoin:miter;stroke-width:0.8;"/>
   </g>
   <g id="patch_85">
    <path d="M 51.05 174.04 
L 565.2 174.04 
" style="fill:none;stroke:#000000;stroke-linecap:square;stroke-linejoin:miter;stroke-width:0.8;"/>
   </g>
   <g id="patch_86">
    <path d="M 51.05 25.44 
L 565.2 25.44 
" style="fill:none;stroke:#000000;stroke-linecap:square;stroke-linejoin:miter;stroke-width:0.8;"/>
   </g>
   <g id="text_14">
    <!-- Reprojection error distribution -->
    <g transform="translate(218.043437 19.44)scale(0.12 -0.12)">
     <defs>
      <path d="M 2906 2969 
L 2906 4863 
L 3481 4863 
L 3481 0 
L 2906 0 
L 2906 525 
Q 2725 213 2448 61 
Q 2172 -91 1784 -91 
Q 1150 -91 751 415 
Q 353 922 353 1747 
Q 353 2572 751 3078 
Q 1150 3584 1784 3584 
Q 2172 3584 2448 3432 
Q 2725 3281 2906 2969 
z
M 947 1747 
Q 947 1113 1208 752 
Q 1469 391 1925 391 
Q 2381 391 2643 752 
Q 2906 1113 2906 1747 
Q 2906 2381 2643 2742 
Q 2381 3103 1925 3103 
Q 1469 3103 1208 2742 
Q 947 2381 947 1747 
z
" id="DejaVuSans-64" transform="scale(0.015625)"/>
      <path d="M 3116 1747 
Q 3116 2381 2855 2742 
Q 2594 3103 2138 3103 
Q 1681 3103 1420 2742 
Q 1159 2381 1159 1747 
Q 1159 1113 1420 752 
Q 1681 391 2138 391 
Q 2594 391 2855 752 
Q 3116 1113 3116 1747 
z
M 1159 2969 
Q 1341 3281 1617 3432 
Q 1894 3584 2278 3584 
Q 2916 3584 3314 3078 
Q 3713 2572 3713 1747 
Q 3713 922 3314 415 
Q 2916 -91 2278 -91 
Q 1894 -91 1617 61 
Q 1341 213 1159 525 
L 1159 0 
L 581 0 
L 581 4863 
L 1159 4863 
L 1159 2969 
z
" id="DejaVuSans-62" transform="scale(0.015625)"/>
     </defs>
     <use xlink:href="#DejaVuSans-52"/>
     <use x="64.982422" xlink:href="#DejaVuSans-65"/>
     <use x="126.505859" xlink:href="#DejaVuSans-70"/>
     <use x="189.982422" xlink:href="#DejaVuSans-72"/>
     <use x="228.845703" xlink:href="#DejaVuSans-6f"/>
     <use x="290.027344" xlink:href="#DejaVuSans-6a"/>
     <use x="317.810547" xlink:href="#DejaVuSans-65"/>
     <use x="379.333984" xlink:href="#DejaVuSans-63"/>
     <use x="434.314453" xlink:href="#DejaVuSans-74"/>
     <use x="473.523438" xlink:href="#DejaVuSans-69"/>
     <use x="501.306641" xlink:href="#DejaVuSans-6f"/>
     <use x="562.488281" xlink:href="#DejaVuSans-6e"/>
     <use x="625.867188" xlink:href="#DejaVuSans-20"/>
     <use x="657.654297" xlink:href="#DejaVuSans-65"/>
     <use x="719.177734" xlink:href="#DejaVuSans-72"/>
     <use x="758.541016" xlink:href="#DejaVuSans-72"/>
     <use x="797.404297" xlink:href="#DejaVuSans-6f"/>
     <use x="858.585938" xlink:href="#DejaVuSans-72"/>
     <use x="899.699219" xlink:href="#DejaVuSans-20"/>
     <use x="931.486328" xlink:href="#DejaVuSans-64"/>
     <use x="994.962891" xlink:href="#DejaVuSans-69"/>
     <use x="1022.746094" xlink:href="#DejaVuSans-73"/>
     <use x="1074.845703" xlink:href="#DejaVuSans-74"/>
     <use x="1114.054688" xlink:href="#DejaVuSans-72"/>
     <use x="1155.167969" xlink:href="#DejaVuSans-69"/>
     <use x="1182.951172" xlink:href="#DejaVuSans-62"/>
     <use x="1246.427734" xlink:href="#DejaVuSans-75"/>
     <use x="1309.806641" xlink:href="#DejaVuSans-74"/>
     <use x="1349.015625" xlink:href="#DejaVuSans-69"/>
     <use x="1376.798828" xlink:href="#DejaVuSans-6f"/>
     <use x="1437.980469" xlink:href="#DejaVuSans-6e"/>
    </g>
   </g>
  </g>
 </g>
 <defs>
  <clipPath id="peb7ff3716d">
   <rect height="148.6" width="514.15" x="51.05" y="25.44"/>
  </clipPath>
 </defs>
</svg>
